<svg xmlns="http://www.w3.org/2000/svg" version="1.1" viewBox="0.00 0.00 381.00 381.00" width="381.00" height="381.00">
<g stroke-width="2.00" fill="none" stroke-linecap="butt">
<path stroke="#7b939c" d="&#10;  M 221.6029 73.8845&#10;  A 15.11 13.04 105.3 0 0 238.1678 62.7509&#10;  A 15.11 13.04 105.3 0 0 229.5771 44.7355&#10;  A 15.11 13.04 105.3 0 0 213.0122 55.8691&#10;  A 15.11 13.04 105.3 0 0 221.6029 73.8845"/>
<path stroke="#7b939c" d="&#10;  M 150.87 69.50&#10;  A 0.61 0.61 0.0 0 1 150.11 69.09&#10;  L 143.69 47.45&#10;  A 0.61 0.61 0.0 0 0 142.94 47.04&#10;  L 138.42 48.32&#10;  A 0.61 0.61 0.0 0 0 138.01 49.08&#10;  L 145.89 75.54&#10;  A 0.61 0.61 0.0 0 0 146.64 75.95&#10;  L 162.23 71.29&#10;  A 0.61 0.61 0.0 0 0 162.65 70.54&#10;  L 161.62 66.92&#10;  A 0.61 0.61 0.0 0 0 160.86 66.50&#10;  L 150.87 69.50"/>
<path stroke="#7d4448" d="&#10;  M 307.43 196.98&#10;  A 118.48 118.48 0.0 0 0 188.95 78.50&#10;  A 118.48 118.48 0.0 0 0 70.47 196.98&#10;  A 118.48 118.48 0.0 0 0 188.95 315.46&#10;  A 118.48 118.48 0.0 0 0 307.43 196.98"/>
<path stroke="#7b939c" d="&#10;  M 87.42 105.14&#10;  A 0.46 0.46 0.0 0 1 87.42 104.46&#10;  C 92.28 100.10 96.09 93.55 90.55 87.84&#10;  C 85.91 83.05 80.55 84.78 76.49 89.01&#10;  Q 73.08 92.57 69.77 96.19&#10;  A 0.52 0.52 0.0 0 0 69.81 96.92&#10;  L 90.00 115.45&#10;  Q 90.58 115.99 91.13 115.41&#10;  L 94.15 112.24&#10;  Q 94.66 111.71 94.12 111.21&#10;  L 87.42 105.14"/>
<path stroke="#7b939c" d="&#10;  M 286.30 98.82&#10;  C 289.91 93.70 297.74 89.23 302.04 96.43&#10;  C 302.61 97.38 302.55 98.66 302.75 99.75&#10;  Q 302.90 100.57 303.74 100.50&#10;  L 306.98 100.20&#10;  A 0.92 0.91 85.5 0 0 307.81 99.22&#10;  Q 307.21 91.44 300.48 88.31&#10;  C 292.77 84.73 284.46 89.85 280.70 96.66&#10;  C 276.07 105.04 281.80 114.66 291.19 115.31&#10;  A 0.75 0.74 6.8 0 0 291.98 114.69&#10;  L 292.56 111.24&#10;  Q 292.68 110.50 291.94 110.45&#10;  C 285.62 110.02 282.62 104.06 286.30 98.82"/>
<path stroke="#7d4448" d="&#10;  M 327.68 200.81&#10;  Q 326.63 203.81 327.04 206.88&#10;  A 0.50 0.49 72.6 0 0 327.76 207.26&#10;  L 332.67 204.65&#10;  A 1.90 1.87 -44.2 0 1 334.43 204.66&#10;  L 339.33 207.32&#10;  A 0.67 0.67 0.0 0 0 340.31 206.60&#10;  Q 339.73 203.69 339.70 201.02&#10;  C 339.68 199.13 342.60 196.75 343.90 195.53&#10;  A 0.80 0.79 27.9 0 0 343.48 194.17&#10;  Q 341.77 193.88 340.13 193.65&#10;  C 336.06 193.06 335.85 190.52 334.32 187.46&#10;  A 0.64 0.63 -31.0 0 0 333.38 187.23&#10;  C 332.28 188.03 331.64 190.18 330.95 191.38&#10;  C 329.89 193.25 326.52 193.96 324.63 194.06&#10;  Q 321.79 194.21 323.80 196.22&#10;  L 327.47 199.88&#10;  Q 327.87 200.28 327.68 200.81"/>
<path stroke="#7d4448" d="&#10;  M 50.75 199.72&#10;  Q 53.11 197.80 54.82 195.36&#10;  A 0.80 0.80 0.0 0 0 54.25 194.11&#10;  Q 51.46 193.83 49.03 193.05&#10;  C 47.22 192.47 46.02 189.21 45.18 187.63&#10;  A 0.80 0.79 -43.2 0 0 43.80 187.59&#10;  Q 42.83 189.15 42.12 190.89&#10;  C 41.01 193.64 36.82 194.02 34.33 194.18&#10;  Q 32.76 194.28 33.88 195.39&#10;  L 37.84 199.32&#10;  Q 38.38 199.85 38.31 200.60&#10;  L 37.74 206.71&#10;  A 0.61 0.60 -13.0 0 0 38.66 207.28&#10;  C 40.39 206.24 44.25 203.63 46.20 205.07&#10;  Q 47.76 206.23 49.61 207.09&#10;  A 1.00 1.00 0.0 0 0 51.03 206.20&#10;  Q 51.07 203.20 50.42 200.72&#10;  Q 50.26 200.11 50.75 199.72"/>
<path stroke="#7b939c" d="&#10;  M 324.27 275.56&#10;  A 0.62 0.62 0.0 0 1 323.42 275.81&#10;  L 303.89 265.15&#10;  A 0.62 0.62 0.0 0 1 303.65 264.31&#10;  L 316.02 241.56&#10;  A 0.62 0.62 0.0 0 0 315.78 240.72&#10;  L 312.97 239.14&#10;  A 0.62 0.62 0.0 0 0 312.12 239.38&#10;  L 297.58 266.17&#10;  A 0.62 0.62 0.0 0 0 297.83 267.02&#10;  L 325.19 281.84&#10;  A 0.62 0.62 0.0 0 0 326.03 281.60&#10;  L 340.99 254.01&#10;  A 0.62 0.62 0.0 0 0 340.75 253.17&#10;  L 337.95 251.61&#10;  A 0.62 0.62 0.0 0 0 337.10 251.85&#10;  L 324.27 275.56"/>
<path stroke="#7b939c" d="&#10;  M 52.96 252.56&#10;  L 62.97 252.96&#10;  Q 63.93 253.00 63.97 252.03&#10;  L 64.06 249.70&#10;  A 0.81 0.80 -0.7 0 0 63.20 248.87&#10;  L 60.56 249.03&#10;  Q 59.63 249.08 59.10 248.32&#10;  L 58.73 247.80&#10;  Q 58.06 246.84 59.23 246.87&#10;  Q 64.62 247.04 69.13 246.53&#10;  Q 69.84 246.45 69.73 245.75&#10;  L 69.24 242.55&#10;  A 0.66 0.66 0.0 0 0 68.42 242.01&#10;  Q 61.44 243.79 55.26 242.98&#10;  Q 54.74 242.91 54.41 243.30&#10;  L 52.73 245.27&#10;  A 0.70 0.70 0.0 0 0 52.76 246.21&#10;  L 54.84 248.43&#10;  A 0.27 0.27 0.0 0 1 54.64 248.88&#10;  Q 50.88 248.85 47.42 247.53&#10;  Q 46.90 247.33 46.56 247.78&#10;  L 45.08 249.74&#10;  Q 44.77 250.15 45.13 250.53&#10;  L 51.42 257.22&#10;  A 1.09 1.09 0.0 0 0 52.77 257.40&#10;  L 54.48 256.35&#10;  Q 55.27 255.87 54.64 255.19&#10;  L 52.71 253.09&#10;  Q 52.20 252.53 52.96 252.56"/>
<path stroke="#7b939c" d="&#10;  M 317.91 261.60&#10;  A 0.51 0.50 72.8 0 1 318.59 261.96&#10;  Q 319.81 267.32 319.73 272.19&#10;  A 0.71 0.70 -8.3 0 0 320.65 272.87&#10;  L 323.87 271.85&#10;  Q 324.62 271.61 324.57 270.83&#10;  Q 324.25 265.80 322.76 260.26&#10;  A 0.45 0.45 0.0 0 1 323.06 259.71&#10;  L 331.73 256.99&#10;  Q 332.64 256.71 332.41 255.78&#10;  L 331.64 252.67&#10;  Q 331.43 251.82 330.61 252.12&#10;  L 321.95 255.22&#10;  Q 321.35 255.44 321.14 254.84&#10;  C 320.11 251.84 318.83 248.79 317.17 246.06&#10;  Q 316.78 245.42 316.23 245.94&#10;  L 313.92 248.11&#10;  A 1.01 1.01 0.0 0 0 313.74 249.35&#10;  Q 315.74 252.85 317.06 256.67&#10;  A 0.50 0.50 0.0 0 1 316.78 257.30&#10;  L 308.70 260.73&#10;  A 1.19 1.19 0.0 0 0 307.99 262.05&#10;  L 308.41 264.23&#10;  Q 308.63 265.39 309.72 264.94&#10;  L 317.91 261.60"/>
<path stroke="#7b939c" d="&#10;  M 51.96 263.92&#10;  L 44.38 268.10&#10;  A 0.77 0.77 0.0 0 0 44.09 269.17&#10;  L 45.15 270.93&#10;  Q 45.48 271.47 46.05 271.18&#10;  L 52.21 267.96&#10;  A 0.37 0.37 0.0 0 1 52.75 268.26&#10;  L 52.77 268.56&#10;  A 1.12 1.11 73.9 0 1 52.19 269.62&#10;  L 47.51 272.15&#10;  Q 46.82 272.53 47.21 273.21&#10;  L 47.83 274.32&#10;  Q 48.24 275.04 48.98 274.65&#10;  L 54.50 271.72&#10;  Q 54.73 271.60 54.84 271.84&#10;  L 54.97 272.12&#10;  Q 55.24 272.69 54.69 273.00&#10;  L 49.52 275.95&#10;  Q 49.15 276.17 49.26 276.59&#10;  Q 49.49 277.46 50.21 278.09&#10;  Q 50.58 278.42 50.44 278.90&#10;  C 49.80 281.12 52.18 283.04 54.21 281.99&#10;  Q 60.82 278.56 68.03 274.54&#10;  A 0.55 0.54 -29.2 0 0 68.25 273.80&#10;  L 61.15 260.72&#10;  A 0.64 0.63 -29.2 0 1 61.40 259.86&#10;  L 61.76 259.66&#10;  A 0.92 0.92 0.0 0 1 63.01 260.03&#10;  L 69.45 271.94&#10;  Q 69.99 272.93 70.98 272.39&#10;  L 78.11 268.53&#10;  Q 78.77 268.18 78.42 267.52&#10;  L 75.89 262.84&#10;  A 0.76 0.75 -38.5 0 1 75.99 261.97&#10;  L 77.96 259.75&#10;  A 0.94 0.93 -44.3 0 0 77.98 258.52&#10;  L 75.90 256.09&#10;  A 0.60 0.59 -42.2 0 0 75.03 256.05&#10;  L 73.67 257.39&#10;  Q 73.14 257.92 72.79 257.26&#10;  L 69.68 251.31&#10;  A 0.57 0.57 0.0 0 0 68.89 251.08&#10;  C 62.19 254.94 56.13 258.16 48.46 260.40&#10;  Q 48.18 260.48 48.07 260.22&#10;  L 47.97 259.98&#10;  Q 47.95 259.92 48.00 259.90&#10;  Q 48.85 259.50 49.42 258.81&#10;  A 0.58 0.57 -50.2 0 0 49.35 257.99&#10;  L 41.25 251.17&#10;  Q 40.56 250.59 39.90 251.21&#10;  L 38.12 252.88&#10;  Q 37.44 253.52 38.18 254.09&#10;  L 46.21 260.28&#10;  Q 46.93 260.82 46.02 260.80&#10;  L 43.71 260.72&#10;  Q 42.86 260.69 42.73 261.54&#10;  L 42.32 264.23&#10;  Q 42.19 265.05 43.02 265.06&#10;  Q 47.10 265.13 51.86 263.67&#10;  Q 53.12 263.28 51.96 263.92"/>
<path stroke="#7b939c" d="&#10;  M 74.17 292.41&#10;  L 66.46 300.32&#10;  Q 65.82 300.98 66.50 301.60&#10;  L 68.54 303.48&#10;  Q 69.16 304.05 69.73 303.44&#10;  L 78.38 294.36&#10;  Q 78.97 293.74 78.86 294.58&#10;  Q 78.70 295.87 78.26 297.13&#10;  Q 78.01 297.83 78.74 297.71&#10;  L 81.74 297.19&#10;  Q 82.61 297.04 82.61 296.15&#10;  L 82.64 291.26&#10;  Q 82.66 288.50 84.38 290.66&#10;  Q 84.91 291.32 85.56 291.80&#10;  Q 85.99 292.11 86.42 291.80&#10;  Q 87.82 290.76 88.67 289.50&#10;  Q 89.00 289.01 88.57 288.62&#10;  L 86.65 286.88&#10;  Q 86.13 286.41 86.62 285.90&#10;  L 89.26 283.13&#10;  Q 89.74 282.63 90.35 282.97&#10;  L 93.27 284.58&#10;  A 0.45 0.45 0.0 0 0 93.93 284.23&#10;  L 94.25 280.98&#10;  Q 94.32 280.23 93.64 279.92&#10;  Q 88.77 277.66 83.97 274.36&#10;  Q 83.71 274.18 83.58 274.47&#10;  L 82.30 277.31&#10;  A 0.46 0.46 0.0 0 0 82.45 277.87&#10;  L 85.27 279.98&#10;  Q 85.81 280.38 85.34 280.85&#10;  L 83.60 282.63&#10;  Q 82.97 283.28 82.32 282.65&#10;  L 79.61 279.99&#10;  A 0.69 0.69 0.0 0 0 78.63 280.01&#10;  L 76.42 282.37&#10;  Q 76.01 282.80 76.47 283.19&#10;  L 79.01 285.30&#10;  A 0.48 0.48 0.0 0 1 78.91 286.10&#10;  Q 74.03 288.41 68.92 289.19&#10;  Q 68.65 289.23 68.57 289.50&#10;  L 67.37 293.59&#10;  A 0.13 0.13 0.0 0 0 67.52 293.76&#10;  Q 70.79 293.12 73.86 291.93&#10;  Q 75.10 291.46 74.17 292.41"/>
<path stroke="#7b939c" d="&#10;  M 299.11 280.85&#10;  A 0.52 0.52 0.0 0 0 298.37 280.84&#10;  L 294.14 285.04&#10;  A 0.52 0.52 0.0 0 1 293.39 285.03&#10;  L 286.58 277.91&#10;  A 0.52 0.52 0.0 0 0 285.86 277.89&#10;  L 283.04 280.41&#10;  A 0.52 0.52 0.0 0 0 283.01 281.16&#10;  L 289.93 288.33&#10;  A 0.52 0.52 0.0 0 1 289.91 289.06&#10;  L 285.41 293.40&#10;  A 0.52 0.52 0.0 0 0 285.37 294.11&#10;  L 287.64 296.72&#10;  A 0.52 0.52 0.0 0 0 288.39 296.75&#10;  L 293.08 292.29&#10;  A 0.52 0.52 0.0 0 1 293.81 292.30&#10;  L 302.58 301.37&#10;  A 0.52 0.52 0.0 0 1 302.56 302.11&#10;  L 296.78 307.65&#10;  A 0.52 0.52 0.0 0 0 296.77 308.40&#10;  L 299.30 310.93&#10;  A 0.52 0.52 0.0 0 0 300.03 310.93&#10;  L 314.88 296.52&#10;  A 0.52 0.52 0.0 0 0 314.89 295.78&#10;  L 312.40 293.26&#10;  A 0.52 0.52 0.0 0 0 311.66 293.26&#10;  L 306.76 298.10&#10;  A 0.52 0.52 0.0 0 1 306.02 298.09&#10;  L 297.17 288.99&#10;  A 0.52 0.52 0.0 0 1 297.18 288.25&#10;  L 301.56 284.13&#10;  A 0.52 0.52 0.0 0 0 301.57 283.39&#10;  L 299.11 280.85"/>
<path stroke="#7b939c" d="&#10;  M 108.6298 296.2214&#10;  A 0.54 0.54 0.0 0 0 108.6178 295.4578&#10;  L 96.9698 284.1701&#10;  A 0.54 0.54 0.0 0 0 96.2063 284.1821&#10;  L 88.0502 292.5986&#10;  A 0.54 0.54 0.0 0 0 88.0622 293.3622&#10;  L 99.7102 304.6499&#10;  A 0.54 0.54 0.0 0 0 100.4737 304.6379&#10;  L 108.6298 296.2214"/>
<path stroke="#7b939c" d="&#10;  M 280.28 298.08&#10;  Q 281.78 304.25 280.10 310.07&#10;  A 0.85 0.84 -69.0 0 0 280.54 311.07&#10;  L 283.95 312.72&#10;  A 0.53 0.52 -73.6 0 0 284.70 312.31&#10;  L 285.10 308.71&#10;  A 0.46 0.46 0.0 0 1 285.88 308.44&#10;  L 294.45 317.30&#10;  Q 294.87 317.73 295.28 317.29&#10;  L 297.57 314.82&#10;  Q 297.99 314.37 297.56 313.94&#10;  L 288.69 304.81&#10;  Q 287.92 304.02 289.00 304.23&#10;  L 291.58 304.74&#10;  Q 292.28 304.88 292.21 304.17&#10;  L 291.91 301.05&#10;  Q 291.80 299.98 290.73 300.02&#10;  L 285.57 300.19&#10;  Q 285.16 300.21 285.04 299.81&#10;  L 282.85 292.10&#10;  Q 282.69 291.56 282.13 291.61&#10;  L 280.25 291.80&#10;  Q 279.50 291.87 279.07 292.51&#10;  Q 278.42 293.46 277.63 294.23&#10;  Q 276.89 294.95 277.18 293.96&#10;  L 277.64 292.42&#10;  Q 277.88 291.59 277.03 291.46&#10;  L 272.56 290.74&#10;  A 0.85 0.84 -76.7 0 0 271.63 291.32&#10;  L 270.74 294.07&#10;  Q 270.58 294.55 271.08 294.66&#10;  L 275.17 295.51&#10;  A 0.44 0.44 0.0 0 1 275.38 296.27&#10;  L 271.84 299.55&#10;  Q 271.11 300.21 271.80 300.91&#10;  L 273.57 302.70&#10;  Q 274.14 303.28 274.73 302.71&#10;  L 279.66 297.91&#10;  Q 280.12 297.45 280.28 298.08"/>
<path stroke="#7b939c" d="&#10;  M 89.66 307.49&#10;  A 0.64 0.64 0.0 0 1 89.61 306.60&#10;  L 90.76 305.27&#10;  A 0.64 0.64 0.0 0 1 91.69 305.23&#10;  L 96.18 309.56&#10;  A 0.64 0.64 0.0 0 0 97.05 309.58&#10;  L 99.05 307.80&#10;  A 0.64 0.64 0.0 0 0 99.06 306.86&#10;  L 85.83 294.06&#10;  A 0.64 0.64 0.0 0 0 84.91 294.10&#10;  L 83.11 296.11&#10;  A 0.64 0.64 0.0 0 0 83.14 297.00&#10;  L 87.61 301.32&#10;  A 0.64 0.64 0.0 0 1 87.61 302.24&#10;  L 86.42 303.38&#10;  A 0.64 0.64 0.0 0 1 85.54 303.37&#10;  L 81.64 299.63&#10;  A 0.64 0.64 0.0 0 0 80.74 299.65&#10;  L 78.84 301.61&#10;  A 0.64 0.64 0.0 0 0 78.87 302.52&#10;  L 82.77 306.10&#10;  A 0.64 0.64 0.0 0 1 82.85 306.95&#10;  L 81.71 308.48&#10;  A 0.64 0.64 0.0 0 1 80.75 308.56&#10;  L 75.13 303.06&#10;  A 0.64 0.64 0.0 0 0 74.22 303.07&#10;  L 72.26 305.11&#10;  A 0.64 0.64 0.0 0 0 72.28 306.01&#10;  L 87.01 320.22&#10;  A 0.64 0.64 0.0 0 0 87.90 320.21&#10;  L 89.90 318.21&#10;  A 0.64 0.64 0.0 0 0 89.89 317.29&#10;  L 84.74 312.46&#10;  A 0.64 0.64 0.0 0 1 84.74 311.52&#10;  L 86.19 310.21&#10;  A 0.64 0.64 0.0 0 1 87.07 310.23&#10;  L 90.78 313.91&#10;  A 0.64 0.64 0.0 0 0 91.68 313.91&#10;  L 93.57 312.03&#10;  A 0.64 0.64 0.0 0 0 93.55 311.11&#10;  L 89.66 307.49"/>
<path stroke="#7b939c" d="&#10;  M 119.66 302.27&#10;  A 0.50 0.50 0.0 0 0 119.09 301.96&#10;  L 116.05 302.61&#10;  A 0.50 0.50 0.0 0 0 115.68 303.25&#10;  L 117.99 310.50&#10;  A 0.50 0.50 0.0 0 0 118.62 310.82&#10;  L 121.92 309.75&#10;  A 0.50 0.50 0.0 0 0 122.24 309.10&#10;  L 119.66 302.27"/>
<path stroke="#7b939c" d="&#10;  M 242.94 314.67&#10;  L 243.30 314.09&#10;  Q 243.69 313.44 243.13 312.95&#10;  L 240.17 310.35&#10;  Q 239.76 309.99 239.36 310.35&#10;  L 236.87 312.53&#10;  A 0.21 0.21 0.0 0 0 236.86 312.83&#10;  L 239.76 315.95&#10;  Q 240.22 316.45 239.60 316.74&#10;  L 234.61 319.04&#10;  Q 233.75 319.43 234.13 320.29&#10;  L 235.15 322.61&#10;  Q 235.50 323.40 236.27 323.02&#10;  L 238.30 322.04&#10;  Q 238.86 321.77 239.16 322.32&#10;  C 242.72 328.89 246.12 335.47 244.74 343.03&#10;  Q 244.62 343.66 245.27 343.67&#10;  Q 246.75 343.69 248.08 344.28&#10;  A 0.77 0.77 0.0 0 0 249.15 343.75&#10;  C 250.57 337.47 248.82 333.03 246.61 327.37&#10;  Q 246.26 326.48 247.14 326.12&#10;  L 248.03 325.75&#10;  A 0.97 0.96 65.6 0 1 249.25 326.21&#10;  Q 251.78 331.15 253.62 336.27&#10;  A 1.43 1.43 0.0 0 1 252.54 338.17&#10;  Q 251.88 338.30 251.28 338.68&#10;  A 0.65 0.65 0.0 0 0 251.05 339.51&#10;  Q 251.78 340.96 253.10 341.80&#10;  Q 253.66 342.15 254.26 341.89&#10;  C 257.14 340.67 259.40 338.50 258.12 335.36&#10;  Q 255.52 328.98 252.98 324.07&#10;  Q 252.52 323.19 253.45 323.55&#10;  L 255.62 324.38&#10;  A 0.58 0.58 0.0 0 0 256.41 323.87&#10;  L 256.55 321.80&#10;  Q 256.59 321.11 257.09 321.59&#10;  L 261.97 326.23&#10;  Q 262.38 326.62 262.28 327.17&#10;  Q 261.50 331.24 258.89 334.73&#10;  Q 258.26 335.58 259.12 336.18&#10;  L 261.32 337.72&#10;  Q 262.21 338.34 262.82 337.44&#10;  C 264.49 334.96 265.51 332.47 266.37 329.68&#10;  A 0.64 0.64 0.0 0 1 267.27 329.31&#10;  Q 270.59 331.06 274.58 331.30&#10;  Q 275.38 331.35 275.55 330.56&#10;  L 276.28 327.00&#10;  Q 276.43 326.30 275.72 326.32&#10;  Q 271.72 326.43 267.50 324.42&#10;  A 0.74 0.74 0.0 0 1 267.08 323.75&#10;  Q 267.09 317.21 264.81 310.64&#10;  Q 264.61 310.07 265.17 309.87&#10;  L 266.06 309.54&#10;  Q 267.25 309.11 266.75 307.94&#10;  L 265.91 306.01&#10;  Q 265.47 304.98 264.46 305.47&#10;  L 256.48 309.40&#10;  Q 255.60 309.84 255.37 308.89&#10;  L 254.31 304.50&#10;  A 0.58 0.57 75.2 0 0 253.59 304.08&#10;  L 250.16 305.11&#10;  Q 249.51 305.30 249.73 305.94&#10;  Q 251.96 312.63 252.05 319.95&#10;  A 0.44 0.43 14.4 0 1 251.40 320.33&#10;  L 251.07 320.15&#10;  Q 250.52 319.84 249.96 320.13&#10;  L 245.16 322.57&#10;  A 0.89 0.89 0.0 0 1 243.96 322.18&#10;  L 243.16 320.61&#10;  Q 242.75 319.79 243.58 319.39&#10;  L 249.91 316.32&#10;  A 0.67 0.66 -25.8 0 0 250.22 315.44&#10;  L 248.92 312.69&#10;  Q 248.64 312.08 248.04 312.39&#10;  L 243.16 314.91&#10;  Q 242.63 315.19 242.94 314.67"/>
<path stroke="#7b939c" d="&#10;  M 132.95 316.76&#10;  A 0.58 0.58 0.0 0 1 132.70 315.94&#10;  L 133.48 314.67&#10;  A 0.58 0.58 0.0 0 1 134.22 314.45&#10;  L 142.83 318.59&#10;  A 0.58 0.58 0.0 0 0 143.61 318.31&#10;  L 144.79 315.73&#10;  A 0.58 0.58 0.0 0 0 144.52 314.97&#10;  L 125.96 305.74&#10;  A 0.58 0.58 0.0 0 0 125.17 306.03&#10;  L 123.99 308.71&#10;  A 0.58 0.58 0.0 0 0 124.27 309.46&#10;  L 129.40 311.98&#10;  A 0.58 0.58 0.0 0 1 129.51 312.96&#10;  L 128.25 313.95&#10;  A 0.58 0.58 0.0 0 1 127.65 314.02&#10;  L 124.04 312.33&#10;  A 0.58 0.58 0.0 0 0 123.27 312.61&#10;  L 122.09 315.11&#10;  A 0.58 0.58 0.0 0 0 122.35 315.88&#10;  L 125.02 317.19&#10;  A 0.58 0.58 0.0 0 1 125.23 318.06&#10;  L 123.93 319.79&#10;  A 0.58 0.58 0.0 0 1 123.19 319.95&#10;  L 118.75 317.64&#10;  A 0.58 0.58 0.0 0 0 117.97 317.88&#10;  L 116.54 320.52&#10;  A 0.58 0.58 0.0 0 0 116.79 321.32&#10;  L 137.61 331.73&#10;  A 0.58 0.58 0.0 0 0 138.40 331.46&#10;  L 139.75 328.65&#10;  A 0.58 0.58 0.0 0 0 139.45 327.87&#10;  L 136.94 326.83&#10;  A 0.58 0.58 0.0 0 1 136.67 325.99&#10;  L 139.85 320.69&#10;  A 0.58 0.58 0.0 0 0 139.60 319.87&#10;  L 132.95 316.76"/>
<path stroke="#7b939c" d="&#10;  M 115.53 328.08&#10;  L 115.51 326.91&#10;  Q 115.50 326.22 114.84 326.41&#10;  Q 113.46 326.82 112.03 326.73&#10;  A 0.32 0.32 0.0 0 1 111.76 326.27&#10;  L 117.96 314.04&#10;  Q 118.26 313.43 117.66 313.12&#10;  L 111.20 309.78&#10;  Q 110.47 309.40 110.09 310.13&#10;  L 108.68 312.87&#10;  Q 108.39 313.44 108.97 313.71&#10;  L 111.86 315.03&#10;  A 0.65 0.65 0.0 0 1 112.17 315.91&#10;  Q 110.03 320.25 107.93 324.45&#10;  Q 106.93 326.45 104.99 327.65&#10;  Q 104.34 328.05 104.39 328.80&#10;  L 104.53 331.25&#10;  Q 104.59 332.19 105.51 332.03&#10;  L 113.99 330.55&#10;  Q 114.57 330.45 114.31 330.98&#10;  L 112.21 335.30&#10;  Q 111.75 336.24 112.59 336.88&#10;  Q 114.31 338.18 116.30 337.72&#10;  Q 116.88 337.59 117.40 337.86&#10;  L 123.99 341.16&#10;  Q 124.48 341.41 124.79 341.88&#10;  Q 126.10 343.85 128.46 344.70&#10;  Q 129.03 344.91 129.31 344.36&#10;  L 134.77 333.43&#10;  A 0.87 0.86 26.7 0 0 134.38 332.27&#10;  L 118.39 324.35&#10;  A 0.72 0.71 24.4 0 0 117.41 324.71&#10;  L 115.95 328.17&#10;  Q 115.55 329.12 115.53 328.08"/>
<path stroke="#7b939c" d="&#10;  M 165.43 319.04&#10;  A 0.41 0.41 0.0 0 0 165.09 319.61&#10;  L 166.50 322.84&#10;  A 0.41 0.41 0.0 0 1 166.06 323.41&#10;  L 151.83 321.24&#10;  A 0.41 0.41 0.0 0 0 151.36 321.60&#10;  L 151.06 324.65&#10;  A 0.41 0.41 0.0 0 0 151.40 325.10&#10;  L 184.18 330.16&#10;  A 0.41 0.41 0.0 0 0 184.65 329.80&#10;  L 185.05 326.72&#10;  A 0.41 0.41 0.0 0 0 184.71 326.26&#10;  L 172.33 324.35&#10;  A 0.41 0.41 0.0 0 1 172.01 324.10&#10;  L 169.87 318.90&#10;  A 0.41 0.41 0.0 0 0 169.45 318.65&#10;  L 165.43 319.04"/>
<path stroke="#7b939c" d="&#10;  M 216.48 338.12&#10;  L 218.66 352.38&#10;  Q 218.73 352.88 219.24 352.79&#10;  L 222.99 352.14&#10;  Q 223.53 352.05 223.44 351.51&#10;  L 221.31 337.76&#10;  A 0.74 0.74 0.0 0 1 221.93 336.92&#10;  L 228.28 335.99&#10;  Q 228.73 335.92 228.67 335.47&#10;  L 228.20 332.02&#10;  Q 228.13 331.50 227.62 331.57&#10;  L 221.53 332.46&#10;  Q 220.50 332.61 220.35 331.58&#10;  L 219.37 324.96&#10;  Q 219.21 323.86 220.30 323.69&#10;  L 225.11 322.92&#10;  Q 225.65 322.83 225.57 322.29&#10;  L 225.07 319.07&#10;  Q 224.99 318.52 224.45 318.61&#10;  L 194.47 323.20&#10;  A 0.75 0.75 0.0 0 0 193.84 324.03&#10;  L 194.18 326.97&#10;  A 0.70 0.70 0.0 0 0 194.97 327.57&#10;  L 200.99 326.64&#10;  A 0.45 0.44 81.4 0 1 201.49 327.01&#10;  L 202.77 334.98&#10;  Q 202.84 335.39 202.43 335.45&#10;  L 194.74 336.62&#10;  Q 194.37 336.68 194.43 337.05&#10;  L 195.09 340.60&#10;  Q 195.17 341.04 195.61 340.98&#10;  L 202.42 339.92&#10;  Q 203.03 339.83 203.01 340.44&#10;  Q 202.78 347.65 197.25 352.40&#10;  A 0.46 0.45 -49.0 0 0 197.30 353.13&#10;  L 200.61 355.22&#10;  Q 201.09 355.52 201.52 355.14&#10;  Q 208.15 349.27 207.81 339.45&#10;  Q 207.80 339.04 208.20 338.99&#10;  L 216.13 337.86&#10;  Q 216.43 337.82 216.48 338.12"/>
<path stroke="#7b939c" d="&#10;  M 179.2404 331.8638&#10;  A 0.47 0.47 0.0 0 0 178.8460 331.3288&#10;  L 156.1243 327.8925&#10;  A 0.47 0.47 0.0 0 0 155.5893 328.2870&#10;  L 155.1796 330.9962&#10;  A 0.47 0.47 0.0 0 0 155.5740 331.5312&#10;  L 178.2957 334.9675&#10;  A 0.47 0.47 0.0 0 0 178.8307 334.5730&#10;  L 179.2404 331.8638"/>
<path stroke="#7b939c" d="&#10;  M 178.3612 337.6652&#10;  A 0.52 0.52 0.0 0 0 177.9268 337.0718&#10;  L 155.3162 333.5715&#10;  A 0.52 0.52 0.0 0 0 154.7227 334.0058&#10;  L 154.3188 336.6148&#10;  A 0.52 0.52 0.0 0 0 154.7532 337.2082&#10;  L 177.3638 340.7085&#10;  A 0.52 0.52 0.0 0 0 177.9573 340.2742&#10;  L 178.3612 337.6652"/>
<path stroke="#7b939c" d="&#10;  M 158.72 351.33&#10;  Q 164.61 352.13 169.98 353.06&#10;  Q 170.77 353.20 171.34 353.77&#10;  Q 172.85 355.26 175.54 354.98&#10;  Q 176.15 354.91 176.24 354.31&#10;  L 177.83 343.83&#10;  A 0.60 0.60 0.0 0 0 177.33 343.16&#10;  L 153.96 339.58&#10;  Q 153.42 339.50 153.34 340.04&#10;  L 151.70 351.04&#10;  Q 151.62 351.58 152.15 351.72&#10;  Q 153.97 352.18 155.38 351.70&#10;  Q 157.10 351.11 158.72 351.33"/>
<path stroke="#7b939c" d="&#10;  M 223.0441 68.8958&#10;  A 9.94 6.96 104.9 0 0 232.3260 61.0796&#10;  A 9.94 6.96 104.9 0 0 228.1559 49.6842&#10;  A 9.94 6.96 104.9 0 0 218.8740 57.5004&#10;  A 9.94 6.96 104.9 0 0 223.0441 68.8958"/>
<path stroke="#7d4448" d="&#10;  M 300.27 197.06&#10;  A 111.32 111.32 0.0 0 0 188.95 85.74&#10;  A 111.32 111.32 0.0 0 0 77.63 197.06&#10;  A 111.32 111.32 0.0 0 0 188.95 308.38&#10;  A 111.32 111.32 0.0 0 0 300.27 197.06"/>
<path stroke="#7b939c" d="&#10;  M 77.29 95.78&#10;  L 83.41 101.33&#10;  A 0.45 0.45 0.0 0 0 84.05 101.30&#10;  L 86.40 98.71&#10;  A 5.09 4.19 -47.8 0 0 86.72 92.12&#10;  L 86.14 91.60&#10;  A 5.09 4.19 -47.8 0 0 79.61 92.56&#10;  L 77.26 95.15&#10;  A 0.45 0.45 0.0 0 0 77.29 95.78"/>
<path stroke="#5b7ca1" d="&#10;  M 129.97 225.59&#10;  Q 130.12 238.77 129.94 251.87&#10;  Q 129.92 253.82 130.54 255.29&#10;  A 0.96 0.94 81.3 0 0 131.31 255.87&#10;  Q 132.73 256.03 134.16 256.03&#10;  Q 190.43 256.06 245.89 256.03&#10;  A 2.10 2.10 0.0 0 0 247.99 253.93&#10;  L 248.01 225.56&#10;  A 0.38 0.37 -67.3 0 1 248.65 225.29&#10;  L 259.05 235.64&#10;  A 3.24 3.23 22.4 0 1 260.01 237.94&#10;  L 260.05 253.86&#10;  A 2.17 2.17 0.0 0 0 262.22 256.02&#10;  L 275.87 256.03&#10;  A 1.65 1.64 -0.2 0 0 277.52 254.38&#10;  L 277.49 234.07&#10;  A 1.03 1.03 0.0 0 0 276.54 233.04&#10;  Q 271.00 232.65 265.93 232.83&#10;  A 3.50 3.49 -23.6 0 1 263.32 231.81&#10;  L 193.14 161.58&#10;  A 4.14 4.14 0.0 0 1 191.94 158.64&#10;  L 192.04 145.69&#10;  Q 192.04 144.75 192.94 145.03&#10;  Q 193.56 145.22 194.43 146.08&#10;  C 196.28 147.92 198.28 150.09 200.53 151.26&#10;  C 208.50 155.38 214.37 151.17 219.99 145.57&#10;  A 5.37 5.37 0.0 0 1 223.75 144.01&#10;  L 233.88 143.97&#10;  A 2.20 2.19 3.3 0 0 236.05 142.04&#10;  C 236.40 139.04 232.92 134.96 231.24 132.52&#10;  Q 230.89 132.02 231.26 131.53&#10;  C 233.11 129.06 236.42 125.14 236.10 122.00&#10;  Q 235.98 120.83 234.81 120.71&#10;  Q 228.48 120.04 222.11 120.64&#10;  C 217.25 121.10 215.13 124.61 211.62 127.31&#10;  Q 208.02 130.09 204.23 128.59&#10;  C 201.15 127.38 199.27 124.41 196.53 122.53&#10;  C 194.28 120.98 186.00 118.21 186.00 123.54&#10;  Q 186.01 141.51 186.05 158.33&#10;  C 186.05 160.05 185.33 161.21 184.17 162.37&#10;  Q 149.21 197.23 114.65 231.84&#10;  A 3.19 3.17 22.0 0 1 112.45 232.77&#10;  L 102.00 232.93&#10;  Q 100.48 232.95 100.48 234.47&#10;  L 100.48 254.39&#10;  A 1.66 1.65 0.0 0 0 102.14 256.04&#10;  L 115.97 256.03&#10;  A 2.00 2.00 0.0 0 0 117.97 254.04&#10;  L 118.02 238.16&#10;  A 3.76 3.71 -22.8 0 1 119.12 235.52&#10;  L 129.32 225.33&#10;  A 0.38 0.38 0.0 0 1 129.97 225.59"/>
<path stroke="#5b7ca1" d="&#10;  M 194.08 139.10&#10;  Q 196.00 139.74 197.46 141.13&#10;  C 201.52 144.99 206.35 150.19 212.02 144.59&#10;  C 216.21 140.44 219.98 137.42 226.34 137.99&#10;  Q 228.23 138.16 227.05 136.68&#10;  C 225.65 134.90 223.77 132.68 225.15 130.29&#10;  Q 226.32 128.28 227.63 126.72&#10;  Q 228.14 126.12 227.36 126.03&#10;  C 222.38 125.44 220.31 127.18 217.12 130.46&#10;  C 212.77 134.93 206.56 136.40 200.99 133.72&#10;  C 197.98 132.28 195.50 129.21 192.74 127.14&#10;  A 0.44 0.44 0.0 0 0 192.04 127.48&#10;  C 191.94 130.34 192.15 133.36 191.99 136.31&#10;  Q 191.88 138.38 194.08 139.10"/>
<path stroke="#5b7ca1" d="&#10;  M 192.80 169.43&#10;  A 0.47 0.47 0.0 0 0 192.00 169.76&#10;  L 192.00 249.79&#10;  A 0.47 0.47 0.0 0 0 192.47 250.26&#10;  L 241.53 250.26&#10;  A 0.47 0.47 0.0 0 0 242.00 249.79&#10;  L 242.07 218.87&#10;  A 0.47 0.47 0.0 0 0 241.93 218.53&#10;  L 192.80 169.43"/>
<path stroke="#5b7ca1" d="&#10;  M 154.10 210.45&#10;  Q 177.00 199.90 184.33 175.30&#10;  Q 185.08 172.77 185.15 170.13&#10;  Q 185.17 169.54 184.75 169.96&#10;  L 141.81 212.88&#10;  Q 140.32 214.36 142.39 214.03&#10;  Q 148.44 213.06 154.10 210.45"/>
<path stroke="#5b7ca1" d="&#10;  M 146.10 219.65&#10;  C 151.59 224.26 153.66 230.66 153.57 238.13&#10;  A 0.50 0.50 0.0 0 0 154.06 238.63&#10;  L 163.07 238.74&#10;  Q 163.83 238.75 163.63 238.01&#10;  Q 163.25 236.68 162.79 235.36&#10;  C 160.55 228.83 166.76 220.93 173.42 220.98&#10;  Q 179.53 221.02 185.32 220.97&#10;  Q 186.00 220.97 186.00 220.29&#10;  L 186.02 189.29&#10;  Q 186.02 187.43 185.14 189.07&#10;  Q 172.75 212.19 146.18 219.29&#10;  A 0.21 0.21 0.0 0 0 146.10 219.65"/>
<path stroke="#5b7ca1" d="&#10;  M 147.63 235.80&#10;  C 147.39 228.68 143.32 223.35 136.41 221.22&#10;  A 0.30 0.30 0.0 0 0 136.02 221.50&#10;  L 135.99 249.64&#10;  Q 135.99 250.30 136.64 250.29&#10;  L 147.28 250.26&#10;  A 0.40 0.40 0.0 0 0 147.68 249.87&#10;  Q 147.86 242.65 147.63 235.80"/>
<path stroke="#5b7ca1" d="&#10;  M 185.91 238.15&#10;  L 186.09 227.72&#10;  A 0.63 0.63 0.0 0 0 185.47 227.07&#10;  L 174.55 226.88&#10;  A 6.21 5.70 1.0 0 0 168.24 232.48&#10;  L 168.24 232.77&#10;  A 6.21 5.70 1.0 0 0 174.35 238.58&#10;  L 185.27 238.77&#10;  A 0.63 0.63 0.0 0 0 185.91 238.15"/>
<path stroke="#5b7ca1" d="&#10;  M 111.98 239.33&#10;  A 0.67 0.67 0.0 0 0 111.31 238.66&#10;  L 106.69 238.66&#10;  A 0.67 0.67 0.0 0 0 106.02 239.33&#10;  L 106.02 249.63&#10;  A 0.67 0.67 0.0 0 0 106.69 250.30&#10;  L 111.31 250.30&#10;  A 0.67 0.67 0.0 0 0 111.98 249.63&#10;  L 111.98 239.33"/>
<path stroke="#5b7ca1" d="&#10;  M 271.9991 239.2752&#10;  A 0.59 0.59 0.0 0 0 271.4102 238.6842&#10;  L 266.6102 238.6758&#10;  A 0.59 0.59 0.0 0 0 266.0191 239.2648&#10;  L 266.0009 249.7248&#10;  A 0.59 0.59 0.0 0 0 266.5898 250.3158&#10;  L 271.3898 250.3242&#10;  A 0.59 0.59 0.0 0 0 271.9809 249.7352&#10;  L 271.9991 239.2752"/>
<path stroke="#5b7ca1" d="&#10;  M 186.00 244.96&#10;  A 0.50 0.50 0.0 0 0 185.50 244.46&#10;  L 154.04 244.46&#10;  A 0.50 0.50 0.0 0 0 153.54 244.96&#10;  L 153.54 249.76&#10;  A 0.50 0.50 0.0 0 0 154.04 250.26&#10;  L 185.50 250.26&#10;  A 0.50 0.50 0.0 0 0 186.00 249.76&#10;  L 186.00 244.96"/>
<path stroke="#5b7ca1" d="&#10;  M 227.4303 227.5608&#10;  A 0.53 0.53 0.0 0 0 226.9115 227.0199&#10;  L 222.2125 226.9214&#10;  A 0.53 0.53 0.0 0 0 221.6715 227.4402&#10;  L 221.5697 232.2992&#10;  A 0.53 0.53 0.0 0 0 222.0885 232.8401&#10;  L 226.7875 232.9386&#10;  A 0.53 0.53 0.0 0 0 227.3285 232.4198&#10;  L 227.4303 227.5608"/>
<path stroke="#5b7ca1" d="&#10;  M 236.2078 239.3003&#10;  A 0.69 0.69 0.0 0 0 235.5202 238.6079&#10;  L 230.9802 238.5921&#10;  A 0.69 0.69 0.0 0 0 230.2878 239.2797&#10;  L 230.2722 243.7397&#10;  A 0.69 0.69 0.0 0 0 230.9598 244.4321&#10;  L 235.4998 244.4479&#10;  A 0.69 0.69 0.0 0 0 236.1922 243.7603&#10;  L 236.2078 239.3003"/>
<path stroke="#7b939c" d="&#10;  M 68.4515 257.0196&#10;  A 0.89 0.89 0.0 0 0 67.2447 256.6621&#10;  L 66.6471 256.9866&#10;  A 0.89 0.89 0.0 0 0 66.2896 258.1934&#10;  L 70.9085 266.7004&#10;  A 0.89 0.89 0.0 0 0 72.1153 267.0579&#10;  L 72.7129 266.7334&#10;  A 0.89 0.89 0.0 0 0 73.0704 265.5266&#10;  L 68.4515 257.0196"/>
<path stroke="#7b939c" d="&#10;  M 59.2208 264.7480&#10;  A 0.78 0.78 0.0 0 0 58.1464 264.4980&#10;  L 56.0070 265.8297&#10;  A 0.78 0.78 0.0 0 0 55.7570 266.9041&#10;  L 55.7992 266.9720&#10;  A 0.78 0.78 0.0 0 0 56.8736 267.2220&#10;  L 59.0130 265.8903&#10;  A 0.78 0.78 0.0 0 0 59.2630 264.8159&#10;  L 59.2208 264.7480"/>
<path stroke="#7b939c" d="&#10;  M 61.2324 268.6959&#10;  A 0.62 0.62 0.0 0 0 60.4009 268.4177&#10;  L 58.1098 269.5599&#10;  A 0.62 0.62 0.0 0 0 57.8316 270.3914&#10;  L 57.9476 270.6241&#10;  A 0.62 0.62 0.0 0 0 58.7791 270.9023&#10;  L 61.0702 269.7601&#10;  A 0.62 0.62 0.0 0 0 61.3484 268.9286&#10;  L 61.2324 268.6959"/>
<path stroke="#7b939c" d="&#10;  M 63.3572 272.3058&#10;  A 0.67 0.67 0.0 0 0 62.4433 272.0558&#10;  L 60.0632 273.4134&#10;  A 0.67 0.67 0.0 0 0 59.8132 274.3273&#10;  L 59.8628 274.4142&#10;  A 0.67 0.67 0.0 0 0 60.7767 274.6642&#10;  L 63.1568 273.3066&#10;  A 0.67 0.67 0.0 0 0 63.4068 272.3927&#10;  L 63.3572 272.3058"/>
<path stroke="#7b939c" d="&#10;  M 57.10 276.50&#10;  L 56.63 275.55&#10;  A 0.16 0.16 0.0 0 0 56.41 275.48&#10;  L 56.04 275.66&#10;  A 4.83 0.54 -26.3 0 0 51.95 278.28&#10;  L 52.09 278.55&#10;  A 4.83 0.54 -26.3 0 0 56.66 276.89&#10;  L 57.02 276.71&#10;  A 0.16 0.16 0.0 0 0 57.10 276.50"/>
<path stroke="#7b939c" d="&#10;  M 102.6438 295.8945&#10;  A 0.63 0.63 0.0 0 0 102.6205 295.0039&#10;  L 97.3688 290.0202&#10;  A 0.63 0.63 0.0 0 0 96.4781 290.0435&#10;  L 93.8762 292.7855&#10;  A 0.63 0.63 0.0 0 0 93.8995 293.6761&#10;  L 99.1512 298.6598&#10;  A 0.63 0.63 0.0 0 0 100.0419 298.6365&#10;  L 102.6438 295.8945"/>
<path stroke="#7b939c" d="&#10;  M 260.94 312.71&#10;  A 0.52 0.52 0.0 0 0 260.19 312.36&#10;  L 256.92 314.03&#10;  A 0.52 0.52 0.0 0 0 256.77 314.84&#10;  L 261.71 320.46&#10;  A 0.52 0.52 0.0 0 0 262.61 320.00&#10;  L 260.94 312.71"/>
<path stroke="#7b939c" d="&#10;  M 130.37 319.88&#10;  A 0.92 0.92 0.0 0 0 129.32 320.09&#10;  L 128.32 321.15&#10;  A 0.92 0.92 0.0 0 0 128.57 322.60&#10;  L 131.82 324.24&#10;  A 0.92 0.92 0.0 0 0 133.05 323.84&#10;  L 133.74 322.48&#10;  A 0.92 0.92 0.0 0 0 133.30 321.23&#10;  L 130.37 319.88"/>
<path stroke="#7b939c" d="&#10;  M 128.8300 335.0470&#10;  A 0.91 0.91 0.0 0 0 128.4259 333.8252&#10;  L 120.7430 329.9610&#10;  A 0.91 0.91 0.0 0 0 119.5211 330.3651&#10;  L 118.2900 332.8130&#10;  A 0.91 0.91 0.0 0 0 118.6941 334.0348&#10;  L 126.3770 337.8990&#10;  A 0.91 0.91 0.0 0 0 127.5989 337.4949&#10;  L 128.8300 335.0470"/>
<path stroke="#7b939c" d="&#10;  M 214.4312 325.0155&#10;  A 0.45 0.45 0.0 0 0 213.9164 324.6414&#10;  L 206.5482 325.8084&#10;  A 0.45 0.45 0.0 0 0 206.1742 326.3233&#10;  L 207.4288 334.2445&#10;  A 0.45 0.45 0.0 0 0 207.9436 334.6186&#10;  L 215.3118 333.4516&#10;  A 0.45 0.45 0.0 0 0 215.6858 332.9367&#10;  L 214.4312 325.0155"/>
<path stroke="#7b939c" d="&#10;  M 172.5260 346.7897&#10;  A 0.50 0.50 0.0 0 0 172.1064 346.2205&#10;  L 157.7892 344.0552&#10;  A 0.50 0.50 0.0 0 0 157.2200 344.4749&#10;  L 156.8940 346.6303&#10;  A 0.50 0.50 0.0 0 0 157.3136 347.1995&#10;  L 171.6308 349.3648&#10;  A 0.50 0.50 0.0 0 0 172.2000 348.9451&#10;  L 172.5260 346.7897"/>
</g>
<path fill="#123d5a" d="&#10;  M 366.86 196.97&#10;  A 177.85 177.85 0.0 0 1 189.01 374.82&#10;  A 177.85 177.85 0.0 0 1 11.16 196.97&#10;  A 177.85 177.85 0.0 0 1 189.01 19.12&#10;  A 177.85 177.85 0.0 0 1 366.86 196.97&#10;  Z&#10;  M 221.6029 73.8845&#10;  A 15.11 13.04 105.3 0 0 238.1678 62.7509&#10;  A 15.11 13.04 105.3 0 0 229.5771 44.7355&#10;  A 15.11 13.04 105.3 0 0 213.0122 55.8691&#10;  A 15.11 13.04 105.3 0 0 221.6029 73.8845&#10;  Z&#10;  M 150.87 69.50&#10;  A 0.61 0.61 0.0 0 1 150.11 69.09&#10;  L 143.69 47.45&#10;  A 0.61 0.61 0.0 0 0 142.94 47.04&#10;  L 138.42 48.32&#10;  A 0.61 0.61 0.0 0 0 138.01 49.08&#10;  L 145.89 75.54&#10;  A 0.61 0.61 0.0 0 0 146.64 75.95&#10;  L 162.23 71.29&#10;  A 0.61 0.61 0.0 0 0 162.65 70.54&#10;  L 161.62 66.92&#10;  A 0.61 0.61 0.0 0 0 160.86 66.50&#10;  L 150.87 69.50&#10;  Z&#10;  M 307.43 196.98&#10;  A 118.48 118.48 0.0 0 0 188.95 78.50&#10;  A 118.48 118.48 0.0 0 0 70.47 196.98&#10;  A 118.48 118.48 0.0 0 0 188.95 315.46&#10;  A 118.48 118.48 0.0 0 0 307.43 196.98&#10;  Z&#10;  M 87.42 105.14&#10;  A 0.46 0.46 0.0 0 1 87.42 104.46&#10;  C 92.28 100.10 96.09 93.55 90.55 87.84&#10;  C 85.91 83.05 80.55 84.78 76.49 89.01&#10;  Q 73.08 92.57 69.77 96.19&#10;  A 0.52 0.52 0.0 0 0 69.81 96.92&#10;  L 90.00 115.45&#10;  Q 90.58 115.99 91.13 115.41&#10;  L 94.15 112.24&#10;  Q 94.66 111.71 94.12 111.21&#10;  L 87.42 105.14&#10;  Z&#10;  M 286.30 98.82&#10;  C 289.91 93.70 297.74 89.23 302.04 96.43&#10;  C 302.61 97.38 302.55 98.66 302.75 99.75&#10;  Q 302.90 100.57 303.74 100.50&#10;  L 306.98 100.20&#10;  A 0.92 0.91 85.5 0 0 307.81 99.22&#10;  Q 307.21 91.44 300.48 88.31&#10;  C 292.77 84.73 284.46 89.85 280.70 96.66&#10;  C 276.07 105.04 281.80 114.66 291.19 115.31&#10;  A 0.75 0.74 6.8 0 0 291.98 114.69&#10;  L 292.56 111.24&#10;  Q 292.68 110.50 291.94 110.45&#10;  C 285.62 110.02 282.62 104.06 286.30 98.82&#10;  Z&#10;  M 327.68 200.81&#10;  Q 326.63 203.81 327.04 206.88&#10;  A 0.50 0.49 72.6 0 0 327.76 207.26&#10;  L 332.67 204.65&#10;  A 1.90 1.87 -44.2 0 1 334.43 204.66&#10;  L 339.33 207.32&#10;  A 0.67 0.67 0.0 0 0 340.31 206.60&#10;  Q 339.73 203.69 339.70 201.02&#10;  C 339.68 199.13 342.60 196.75 343.90 195.53&#10;  A 0.80 0.79 27.9 0 0 343.48 194.17&#10;  Q 341.77 193.88 340.13 193.65&#10;  C 336.06 193.06 335.85 190.52 334.32 187.46&#10;  A 0.64 0.63 -31.0 0 0 333.38 187.23&#10;  C 332.28 188.03 331.64 190.18 330.95 191.38&#10;  C 329.89 193.25 326.52 193.96 324.63 194.06&#10;  Q 321.79 194.21 323.80 196.22&#10;  L 327.47 199.88&#10;  Q 327.87 200.28 327.68 200.81&#10;  Z&#10;  M 50.75 199.72&#10;  Q 53.11 197.80 54.82 195.36&#10;  A 0.80 0.80 0.0 0 0 54.25 194.11&#10;  Q 51.46 193.83 49.03 193.05&#10;  C 47.22 192.47 46.02 189.21 45.18 187.63&#10;  A 0.80 0.79 -43.2 0 0 43.80 187.59&#10;  Q 42.83 189.15 42.12 190.89&#10;  C 41.01 193.64 36.82 194.02 34.33 194.18&#10;  Q 32.76 194.28 33.88 195.39&#10;  L 37.84 199.32&#10;  Q 38.38 199.85 38.31 200.60&#10;  L 37.74 206.71&#10;  A 0.61 0.60 -13.0 0 0 38.66 207.28&#10;  C 40.39 206.24 44.25 203.63 46.20 205.07&#10;  Q 47.76 206.23 49.61 207.09&#10;  A 1.00 1.00 0.0 0 0 51.03 206.20&#10;  Q 51.07 203.20 50.42 200.72&#10;  Q 50.26 200.11 50.75 199.72&#10;  Z&#10;  M 324.27 275.56&#10;  A 0.62 0.62 0.0 0 1 323.42 275.81&#10;  L 303.89 265.15&#10;  A 0.62 0.62 0.0 0 1 303.65 264.31&#10;  L 316.02 241.56&#10;  A 0.62 0.62 0.0 0 0 315.78 240.72&#10;  L 312.97 239.14&#10;  A 0.62 0.62 0.0 0 0 312.12 239.38&#10;  L 297.58 266.17&#10;  A 0.62 0.62 0.0 0 0 297.83 267.02&#10;  L 325.19 281.84&#10;  A 0.62 0.62 0.0 0 0 326.03 281.60&#10;  L 340.99 254.01&#10;  A 0.62 0.62 0.0 0 0 340.75 253.17&#10;  L 337.95 251.61&#10;  A 0.62 0.62 0.0 0 0 337.10 251.85&#10;  L 324.27 275.56&#10;  Z&#10;  M 52.96 252.56&#10;  L 62.97 252.96&#10;  Q 63.93 253.00 63.97 252.03&#10;  L 64.06 249.70&#10;  A 0.81 0.80 -0.7 0 0 63.20 248.87&#10;  L 60.56 249.03&#10;  Q 59.63 249.08 59.10 248.32&#10;  L 58.73 247.80&#10;  Q 58.06 246.84 59.23 246.87&#10;  Q 64.62 247.04 69.13 246.53&#10;  Q 69.84 246.45 69.73 245.75&#10;  L 69.24 242.55&#10;  A 0.66 0.66 0.0 0 0 68.42 242.01&#10;  Q 61.44 243.79 55.26 242.98&#10;  Q 54.74 242.91 54.41 243.30&#10;  L 52.73 245.27&#10;  A 0.70 0.70 0.0 0 0 52.76 246.21&#10;  L 54.84 248.43&#10;  A 0.27 0.27 0.0 0 1 54.64 248.88&#10;  Q 50.88 248.85 47.42 247.53&#10;  Q 46.90 247.33 46.56 247.78&#10;  L 45.08 249.74&#10;  Q 44.77 250.15 45.13 250.53&#10;  L 51.42 257.22&#10;  A 1.09 1.09 0.0 0 0 52.77 257.40&#10;  L 54.48 256.35&#10;  Q 55.27 255.87 54.64 255.19&#10;  L 52.71 253.09&#10;  Q 52.20 252.53 52.96 252.56&#10;  Z&#10;  M 317.91 261.60&#10;  A 0.51 0.50 72.8 0 1 318.59 261.96&#10;  Q 319.81 267.32 319.73 272.19&#10;  A 0.71 0.70 -8.3 0 0 320.65 272.87&#10;  L 323.87 271.85&#10;  Q 324.62 271.61 324.57 270.83&#10;  Q 324.25 265.80 322.76 260.26&#10;  A 0.45 0.45 0.0 0 1 323.06 259.71&#10;  L 331.73 256.99&#10;  Q 332.64 256.71 332.41 255.78&#10;  L 331.64 252.67&#10;  Q 331.43 251.82 330.61 252.12&#10;  L 321.95 255.22&#10;  Q 321.35 255.44 321.14 254.84&#10;  C 320.11 251.84 318.83 248.79 317.17 246.06&#10;  Q 316.78 245.42 316.23 245.94&#10;  L 313.92 248.11&#10;  A 1.01 1.01 0.0 0 0 313.74 249.35&#10;  Q 315.74 252.85 317.06 256.67&#10;  A 0.50 0.50 0.0 0 1 316.78 257.30&#10;  L 308.70 260.73&#10;  A 1.19 1.19 0.0 0 0 307.99 262.05&#10;  L 308.41 264.23&#10;  Q 308.63 265.39 309.72 264.94&#10;  L 317.91 261.60&#10;  Z&#10;  M 51.96 263.92&#10;  L 44.38 268.10&#10;  A 0.77 0.77 0.0 0 0 44.09 269.17&#10;  L 45.15 270.93&#10;  Q 45.48 271.47 46.05 271.18&#10;  L 52.21 267.96&#10;  A 0.37 0.37 0.0 0 1 52.75 268.26&#10;  L 52.77 268.56&#10;  A 1.12 1.11 73.9 0 1 52.19 269.62&#10;  L 47.51 272.15&#10;  Q 46.82 272.53 47.21 273.21&#10;  L 47.83 274.32&#10;  Q 48.24 275.04 48.98 274.65&#10;  L 54.50 271.72&#10;  Q 54.73 271.60 54.84 271.84&#10;  L 54.97 272.12&#10;  Q 55.24 272.69 54.69 273.00&#10;  L 49.52 275.95&#10;  Q 49.15 276.17 49.26 276.59&#10;  Q 49.49 277.46 50.21 278.09&#10;  Q 50.58 278.42 50.44 278.90&#10;  C 49.80 281.12 52.18 283.04 54.21 281.99&#10;  Q 60.82 278.56 68.03 274.54&#10;  A 0.55 0.54 -29.2 0 0 68.25 273.80&#10;  L 61.15 260.72&#10;  A 0.64 0.63 -29.2 0 1 61.40 259.86&#10;  L 61.76 259.66&#10;  A 0.92 0.92 0.0 0 1 63.01 260.03&#10;  L 69.45 271.94&#10;  Q 69.99 272.93 70.98 272.39&#10;  L 78.11 268.53&#10;  Q 78.77 268.18 78.42 267.52&#10;  L 75.89 262.84&#10;  A 0.76 0.75 -38.5 0 1 75.99 261.97&#10;  L 77.96 259.75&#10;  A 0.94 0.93 -44.3 0 0 77.98 258.52&#10;  L 75.90 256.09&#10;  A 0.60 0.59 -42.2 0 0 75.03 256.05&#10;  L 73.67 257.39&#10;  Q 73.14 257.92 72.79 257.26&#10;  L 69.68 251.31&#10;  A 0.57 0.57 0.0 0 0 68.89 251.08&#10;  C 62.19 254.94 56.13 258.16 48.46 260.40&#10;  Q 48.18 260.48 48.07 260.22&#10;  L 47.97 259.98&#10;  Q 47.95 259.92 48.00 259.90&#10;  Q 48.85 259.50 49.42 258.81&#10;  A 0.58 0.57 -50.2 0 0 49.35 257.99&#10;  L 41.25 251.17&#10;  Q 40.56 250.59 39.90 251.21&#10;  L 38.12 252.88&#10;  Q 37.44 253.52 38.18 254.09&#10;  L 46.21 260.28&#10;  Q 46.93 260.82 46.02 260.80&#10;  L 43.71 260.72&#10;  Q 42.86 260.69 42.73 261.54&#10;  L 42.32 264.23&#10;  Q 42.19 265.05 43.02 265.06&#10;  Q 47.10 265.13 51.86 263.67&#10;  Q 53.12 263.28 51.96 263.92&#10;  Z&#10;  M 74.17 292.41&#10;  L 66.46 300.32&#10;  Q 65.82 300.98 66.50 301.60&#10;  L 68.54 303.48&#10;  Q 69.16 304.05 69.73 303.44&#10;  L 78.38 294.36&#10;  Q 78.97 293.74 78.86 294.58&#10;  Q 78.70 295.87 78.26 297.13&#10;  Q 78.01 297.83 78.74 297.71&#10;  L 81.74 297.19&#10;  Q 82.61 297.04 82.61 296.15&#10;  L 82.64 291.26&#10;  Q 82.66 288.50 84.38 290.66&#10;  Q 84.91 291.32 85.56 291.80&#10;  Q 85.99 292.11 86.42 291.80&#10;  Q 87.82 290.76 88.67 289.50&#10;  Q 89.00 289.01 88.57 288.62&#10;  L 86.65 286.88&#10;  Q 86.13 286.41 86.62 285.90&#10;  L 89.26 283.13&#10;  Q 89.74 282.63 90.35 282.97&#10;  L 93.27 284.58&#10;  A 0.45 0.45 0.0 0 0 93.93 284.23&#10;  L 94.25 280.98&#10;  Q 94.32 280.23 93.64 279.92&#10;  Q 88.77 277.66 83.97 274.36&#10;  Q 83.71 274.18 83.58 274.47&#10;  L 82.30 277.31&#10;  A 0.46 0.46 0.0 0 0 82.45 277.87&#10;  L 85.27 279.98&#10;  Q 85.81 280.38 85.34 280.85&#10;  L 83.60 282.63&#10;  Q 82.97 283.28 82.32 282.65&#10;  L 79.61 279.99&#10;  A 0.69 0.69 0.0 0 0 78.63 280.01&#10;  L 76.42 282.37&#10;  Q 76.01 282.80 76.47 283.19&#10;  L 79.01 285.30&#10;  A 0.48 0.48 0.0 0 1 78.91 286.10&#10;  Q 74.03 288.41 68.92 289.19&#10;  Q 68.65 289.23 68.57 289.50&#10;  L 67.37 293.59&#10;  A 0.13 0.13 0.0 0 0 67.52 293.76&#10;  Q 70.79 293.12 73.86 291.93&#10;  Q 75.10 291.46 74.17 292.41&#10;  Z&#10;  M 299.11 280.85&#10;  A 0.52 0.52 0.0 0 0 298.37 280.84&#10;  L 294.14 285.04&#10;  A 0.52 0.52 0.0 0 1 293.39 285.03&#10;  L 286.58 277.91&#10;  A 0.52 0.52 0.0 0 0 285.86 277.89&#10;  L 283.04 280.41&#10;  A 0.52 0.52 0.0 0 0 283.01 281.16&#10;  L 289.93 288.33&#10;  A 0.52 0.52 0.0 0 1 289.91 289.06&#10;  L 285.41 293.40&#10;  A 0.52 0.52 0.0 0 0 285.37 294.11&#10;  L 287.64 296.72&#10;  A 0.52 0.52 0.0 0 0 288.39 296.75&#10;  L 293.08 292.29&#10;  A 0.52 0.52 0.0 0 1 293.81 292.30&#10;  L 302.58 301.37&#10;  A 0.52 0.52 0.0 0 1 302.56 302.11&#10;  L 296.78 307.65&#10;  A 0.52 0.52 0.0 0 0 296.77 308.40&#10;  L 299.30 310.93&#10;  A 0.52 0.52 0.0 0 0 300.03 310.93&#10;  L 314.88 296.52&#10;  A 0.52 0.52 0.0 0 0 314.89 295.78&#10;  L 312.40 293.26&#10;  A 0.52 0.52 0.0 0 0 311.66 293.26&#10;  L 306.76 298.10&#10;  A 0.52 0.52 0.0 0 1 306.02 298.09&#10;  L 297.17 288.99&#10;  A 0.52 0.52 0.0 0 1 297.18 288.25&#10;  L 301.56 284.13&#10;  A 0.52 0.52 0.0 0 0 301.57 283.39&#10;  L 299.11 280.85&#10;  Z&#10;  M 108.6298 296.2214&#10;  A 0.54 0.54 0.0 0 0 108.6178 295.4578&#10;  L 96.9698 284.1701&#10;  A 0.54 0.54 0.0 0 0 96.2063 284.1821&#10;  L 88.0502 292.5986&#10;  A 0.54 0.54 0.0 0 0 88.0622 293.3622&#10;  L 99.7102 304.6499&#10;  A 0.54 0.54 0.0 0 0 100.4737 304.6379&#10;  L 108.6298 296.2214&#10;  Z&#10;  M 280.28 298.08&#10;  Q 281.78 304.25 280.10 310.07&#10;  A 0.85 0.84 -69.0 0 0 280.54 311.07&#10;  L 283.95 312.72&#10;  A 0.53 0.52 -73.6 0 0 284.70 312.31&#10;  L 285.10 308.71&#10;  A 0.46 0.46 0.0 0 1 285.88 308.44&#10;  L 294.45 317.30&#10;  Q 294.87 317.73 295.28 317.29&#10;  L 297.57 314.82&#10;  Q 297.99 314.37 297.56 313.94&#10;  L 288.69 304.81&#10;  Q 287.92 304.02 289.00 304.23&#10;  L 291.58 304.74&#10;  Q 292.28 304.88 292.21 304.17&#10;  L 291.91 301.05&#10;  Q 291.80 299.98 290.73 300.02&#10;  L 285.57 300.19&#10;  Q 285.16 300.21 285.04 299.81&#10;  L 282.85 292.10&#10;  Q 282.69 291.56 282.13 291.61&#10;  L 280.25 291.80&#10;  Q 279.50 291.87 279.07 292.51&#10;  Q 278.42 293.46 277.63 294.23&#10;  Q 276.89 294.95 277.18 293.96&#10;  L 277.64 292.42&#10;  Q 277.88 291.59 277.03 291.46&#10;  L 272.56 290.74&#10;  A 0.85 0.84 -76.7 0 0 271.63 291.32&#10;  L 270.74 294.07&#10;  Q 270.58 294.55 271.08 294.66&#10;  L 275.17 295.51&#10;  A 0.44 0.44 0.0 0 1 275.38 296.27&#10;  L 271.84 299.55&#10;  Q 271.11 300.21 271.80 300.91&#10;  L 273.57 302.70&#10;  Q 274.14 303.28 274.73 302.71&#10;  L 279.66 297.91&#10;  Q 280.12 297.45 280.28 298.08&#10;  Z&#10;  M 89.66 307.49&#10;  A 0.64 0.64 0.0 0 1 89.61 306.60&#10;  L 90.76 305.27&#10;  A 0.64 0.64 0.0 0 1 91.69 305.23&#10;  L 96.18 309.56&#10;  A 0.64 0.64 0.0 0 0 97.05 309.58&#10;  L 99.05 307.80&#10;  A 0.64 0.64 0.0 0 0 99.06 306.86&#10;  L 85.83 294.06&#10;  A 0.64 0.64 0.0 0 0 84.91 294.10&#10;  L 83.11 296.11&#10;  A 0.64 0.64 0.0 0 0 83.14 297.00&#10;  L 87.61 301.32&#10;  A 0.64 0.64 0.0 0 1 87.61 302.24&#10;  L 86.42 303.38&#10;  A 0.64 0.64 0.0 0 1 85.54 303.37&#10;  L 81.64 299.63&#10;  A 0.64 0.64 0.0 0 0 80.74 299.65&#10;  L 78.84 301.61&#10;  A 0.64 0.64 0.0 0 0 78.87 302.52&#10;  L 82.77 306.10&#10;  A 0.64 0.64 0.0 0 1 82.85 306.95&#10;  L 81.71 308.48&#10;  A 0.64 0.64 0.0 0 1 80.75 308.56&#10;  L 75.13 303.06&#10;  A 0.64 0.64 0.0 0 0 74.22 303.07&#10;  L 72.26 305.11&#10;  A 0.64 0.64 0.0 0 0 72.28 306.01&#10;  L 87.01 320.22&#10;  A 0.64 0.64 0.0 0 0 87.90 320.21&#10;  L 89.90 318.21&#10;  A 0.64 0.64 0.0 0 0 89.89 317.29&#10;  L 84.74 312.46&#10;  A 0.64 0.64 0.0 0 1 84.74 311.52&#10;  L 86.19 310.21&#10;  A 0.64 0.64 0.0 0 1 87.07 310.23&#10;  L 90.78 313.91&#10;  A 0.64 0.64 0.0 0 0 91.68 313.91&#10;  L 93.57 312.03&#10;  A 0.64 0.64 0.0 0 0 93.55 311.11&#10;  L 89.66 307.49&#10;  Z&#10;  M 119.66 302.27&#10;  A 0.50 0.50 0.0 0 0 119.09 301.96&#10;  L 116.05 302.61&#10;  A 0.50 0.50 0.0 0 0 115.68 303.25&#10;  L 117.99 310.50&#10;  A 0.50 0.50 0.0 0 0 118.62 310.82&#10;  L 121.92 309.75&#10;  A 0.50 0.50 0.0 0 0 122.24 309.10&#10;  L 119.66 302.27&#10;  Z&#10;  M 242.94 314.67&#10;  L 243.30 314.09&#10;  Q 243.69 313.44 243.13 312.95&#10;  L 240.17 310.35&#10;  Q 239.76 309.99 239.36 310.35&#10;  L 236.87 312.53&#10;  A 0.21 0.21 0.0 0 0 236.86 312.83&#10;  L 239.76 315.95&#10;  Q 240.22 316.45 239.60 316.74&#10;  L 234.61 319.04&#10;  Q 233.75 319.43 234.13 320.29&#10;  L 235.15 322.61&#10;  Q 235.50 323.40 236.27 323.02&#10;  L 238.30 322.04&#10;  Q 238.86 321.77 239.16 322.32&#10;  C 242.72 328.89 246.12 335.47 244.74 343.03&#10;  Q 244.62 343.66 245.27 343.67&#10;  Q 246.75 343.69 248.08 344.28&#10;  A 0.77 0.77 0.0 0 0 249.15 343.75&#10;  C 250.57 337.47 248.82 333.03 246.61 327.37&#10;  Q 246.26 326.48 247.14 326.12&#10;  L 248.03 325.75&#10;  A 0.97 0.96 65.6 0 1 249.25 326.21&#10;  Q 251.78 331.15 253.62 336.27&#10;  A 1.43 1.43 0.0 0 1 252.54 338.17&#10;  Q 251.88 338.30 251.28 338.68&#10;  A 0.65 0.65 0.0 0 0 251.05 339.51&#10;  Q 251.78 340.96 253.10 341.80&#10;  Q 253.66 342.15 254.26 341.89&#10;  C 257.14 340.67 259.40 338.50 258.12 335.36&#10;  Q 255.52 328.98 252.98 324.07&#10;  Q 252.52 323.19 253.45 323.55&#10;  L 255.62 324.38&#10;  A 0.58 0.58 0.0 0 0 256.41 323.87&#10;  L 256.55 321.80&#10;  Q 256.59 321.11 257.09 321.59&#10;  L 261.97 326.23&#10;  Q 262.38 326.62 262.28 327.17&#10;  Q 261.50 331.24 258.89 334.73&#10;  Q 258.26 335.58 259.12 336.18&#10;  L 261.32 337.72&#10;  Q 262.21 338.34 262.82 337.44&#10;  C 264.49 334.96 265.51 332.47 266.37 329.68&#10;  A 0.64 0.64 0.0 0 1 267.27 329.31&#10;  Q 270.59 331.06 274.58 331.30&#10;  Q 275.38 331.35 275.55 330.56&#10;  L 276.28 327.00&#10;  Q 276.43 326.30 275.72 326.32&#10;  Q 271.72 326.43 267.50 324.42&#10;  A 0.74 0.74 0.0 0 1 267.08 323.75&#10;  Q 267.09 317.21 264.81 310.64&#10;  Q 264.61 310.07 265.17 309.87&#10;  L 266.06 309.54&#10;  Q 267.25 309.11 266.75 307.94&#10;  L 265.91 306.01&#10;  Q 265.47 304.98 264.46 305.47&#10;  L 256.48 309.40&#10;  Q 255.60 309.84 255.37 308.89&#10;  L 254.31 304.50&#10;  A 0.58 0.57 75.2 0 0 253.59 304.08&#10;  L 250.16 305.11&#10;  Q 249.51 305.30 249.73 305.94&#10;  Q 251.96 312.63 252.05 319.95&#10;  A 0.44 0.43 14.4 0 1 251.40 320.33&#10;  L 251.07 320.15&#10;  Q 250.52 319.84 249.96 320.13&#10;  L 245.16 322.57&#10;  A 0.89 0.89 0.0 0 1 243.96 322.18&#10;  L 243.16 320.61&#10;  Q 242.75 319.79 243.58 319.39&#10;  L 249.91 316.32&#10;  A 0.67 0.66 -25.8 0 0 250.22 315.44&#10;  L 248.92 312.69&#10;  Q 248.64 312.08 248.04 312.39&#10;  L 243.16 314.91&#10;  Q 242.63 315.19 242.94 314.67&#10;  Z&#10;  M 132.95 316.76&#10;  A 0.58 0.58 0.0 0 1 132.70 315.94&#10;  L 133.48 314.67&#10;  A 0.58 0.58 0.0 0 1 134.22 314.45&#10;  L 142.83 318.59&#10;  A 0.58 0.58 0.0 0 0 143.61 318.31&#10;  L 144.79 315.73&#10;  A 0.58 0.58 0.0 0 0 144.52 314.97&#10;  L 125.96 305.74&#10;  A 0.58 0.58 0.0 0 0 125.17 306.03&#10;  L 123.99 308.71&#10;  A 0.58 0.58 0.0 0 0 124.27 309.46&#10;  L 129.40 311.98&#10;  A 0.58 0.58 0.0 0 1 129.51 312.96&#10;  L 128.25 313.95&#10;  A 0.58 0.58 0.0 0 1 127.65 314.02&#10;  L 124.04 312.33&#10;  A 0.58 0.58 0.0 0 0 123.27 312.61&#10;  L 122.09 315.11&#10;  A 0.58 0.58 0.0 0 0 122.35 315.88&#10;  L 125.02 317.19&#10;  A 0.58 0.58 0.0 0 1 125.23 318.06&#10;  L 123.93 319.79&#10;  A 0.58 0.58 0.0 0 1 123.19 319.95&#10;  L 118.75 317.64&#10;  A 0.58 0.58 0.0 0 0 117.97 317.88&#10;  L 116.54 320.52&#10;  A 0.58 0.58 0.0 0 0 116.79 321.32&#10;  L 137.61 331.73&#10;  A 0.58 0.58 0.0 0 0 138.40 331.46&#10;  L 139.75 328.65&#10;  A 0.58 0.58 0.0 0 0 139.45 327.87&#10;  L 136.94 326.83&#10;  A 0.58 0.58 0.0 0 1 136.67 325.99&#10;  L 139.85 320.69&#10;  A 0.58 0.58 0.0 0 0 139.60 319.87&#10;  L 132.95 316.76&#10;  Z&#10;  M 115.53 328.08&#10;  L 115.51 326.91&#10;  Q 115.50 326.22 114.84 326.41&#10;  Q 113.46 326.82 112.03 326.73&#10;  A 0.32 0.32 0.0 0 1 111.76 326.27&#10;  L 117.96 314.04&#10;  Q 118.26 313.43 117.66 313.12&#10;  L 111.20 309.78&#10;  Q 110.47 309.40 110.09 310.13&#10;  L 108.68 312.87&#10;  Q 108.39 313.44 108.97 313.71&#10;  L 111.86 315.03&#10;  A 0.65 0.65 0.0 0 1 112.17 315.91&#10;  Q 110.03 320.25 107.93 324.45&#10;  Q 106.93 326.45 104.99 327.65&#10;  Q 104.34 328.05 104.39 328.80&#10;  L 104.53 331.25&#10;  Q 104.59 332.19 105.51 332.03&#10;  L 113.99 330.55&#10;  Q 114.57 330.45 114.31 330.98&#10;  L 112.21 335.30&#10;  Q 111.75 336.24 112.59 336.88&#10;  Q 114.31 338.18 116.30 337.72&#10;  Q 116.88 337.59 117.40 337.86&#10;  L 123.99 341.16&#10;  Q 124.48 341.41 124.79 341.88&#10;  Q 126.10 343.85 128.46 344.70&#10;  Q 129.03 344.91 129.31 344.36&#10;  L 134.77 333.43&#10;  A 0.87 0.86 26.7 0 0 134.38 332.27&#10;  L 118.39 324.35&#10;  A 0.72 0.71 24.4 0 0 117.41 324.71&#10;  L 115.95 328.17&#10;  Q 115.55 329.12 115.53 328.08&#10;  Z&#10;  M 165.43 319.04&#10;  A 0.41 0.41 0.0 0 0 165.09 319.61&#10;  L 166.50 322.84&#10;  A 0.41 0.41 0.0 0 1 166.06 323.41&#10;  L 151.83 321.24&#10;  A 0.41 0.41 0.0 0 0 151.36 321.60&#10;  L 151.06 324.65&#10;  A 0.41 0.41 0.0 0 0 151.40 325.10&#10;  L 184.18 330.16&#10;  A 0.41 0.41 0.0 0 0 184.65 329.80&#10;  L 185.05 326.72&#10;  A 0.41 0.41 0.0 0 0 184.71 326.26&#10;  L 172.33 324.35&#10;  A 0.41 0.41 0.0 0 1 172.01 324.10&#10;  L 169.87 318.90&#10;  A 0.41 0.41 0.0 0 0 169.45 318.65&#10;  L 165.43 319.04&#10;  Z&#10;  M 216.48 338.12&#10;  L 218.66 352.38&#10;  Q 218.73 352.88 219.24 352.79&#10;  L 222.99 352.14&#10;  Q 223.53 352.05 223.44 351.51&#10;  L 221.31 337.76&#10;  A 0.74 0.74 0.0 0 1 221.93 336.92&#10;  L 228.28 335.99&#10;  Q 228.73 335.92 228.67 335.47&#10;  L 228.20 332.02&#10;  Q 228.13 331.50 227.62 331.57&#10;  L 221.53 332.46&#10;  Q 220.50 332.61 220.35 331.58&#10;  L 219.37 324.96&#10;  Q 219.21 323.86 220.30 323.69&#10;  L 225.11 322.92&#10;  Q 225.65 322.83 225.57 322.29&#10;  L 225.07 319.07&#10;  Q 224.99 318.52 224.45 318.61&#10;  L 194.47 323.20&#10;  A 0.75 0.75 0.0 0 0 193.84 324.03&#10;  L 194.18 326.97&#10;  A 0.70 0.70 0.0 0 0 194.97 327.57&#10;  L 200.99 326.64&#10;  A 0.45 0.44 81.4 0 1 201.49 327.01&#10;  L 202.77 334.98&#10;  Q 202.84 335.39 202.43 335.45&#10;  L 194.74 336.62&#10;  Q 194.37 336.68 194.43 337.05&#10;  L 195.09 340.60&#10;  Q 195.17 341.04 195.61 340.98&#10;  L 202.42 339.92&#10;  Q 203.03 339.83 203.01 340.44&#10;  Q 202.78 347.65 197.25 352.40&#10;  A 0.46 0.45 -49.0 0 0 197.30 353.13&#10;  L 200.61 355.22&#10;  Q 201.09 355.52 201.52 355.14&#10;  Q 208.15 349.27 207.81 339.45&#10;  Q 207.80 339.04 208.20 338.99&#10;  L 216.13 337.86&#10;  Q 216.43 337.82 216.48 338.12&#10;  Z&#10;  M 179.2404 331.8638&#10;  A 0.47 0.47 0.0 0 0 178.8460 331.3288&#10;  L 156.1243 327.8925&#10;  A 0.47 0.47 0.0 0 0 155.5893 328.2870&#10;  L 155.1796 330.9962&#10;  A 0.47 0.47 0.0 0 0 155.5740 331.5312&#10;  L 178.2957 334.9675&#10;  A 0.47 0.47 0.0 0 0 178.8307 334.5730&#10;  L 179.2404 331.8638&#10;  Z&#10;  M 178.3612 337.6652&#10;  A 0.52 0.52 0.0 0 0 177.9268 337.0718&#10;  L 155.3162 333.5715&#10;  A 0.52 0.52 0.0 0 0 154.7227 334.0058&#10;  L 154.3188 336.6148&#10;  A 0.52 0.52 0.0 0 0 154.7532 337.2082&#10;  L 177.3638 340.7085&#10;  A 0.52 0.52 0.0 0 0 177.9573 340.2742&#10;  L 178.3612 337.6652&#10;  Z&#10;  M 158.72 351.33&#10;  Q 164.61 352.13 169.98 353.06&#10;  Q 170.77 353.20 171.34 353.77&#10;  Q 172.85 355.26 175.54 354.98&#10;  Q 176.15 354.91 176.24 354.31&#10;  L 177.83 343.83&#10;  A 0.60 0.60 0.0 0 0 177.33 343.16&#10;  L 153.96 339.58&#10;  Q 153.42 339.50 153.34 340.04&#10;  L 151.70 351.04&#10;  Q 151.62 351.58 152.15 351.72&#10;  Q 153.97 352.18 155.38 351.70&#10;  Q 157.10 351.11 158.72 351.33&#10;  Z"/>
<path fill="#e3e8de" d="&#10;  M 221.6029 73.8845&#10;  A 15.11 13.04 105.3 0 1 213.0122 55.8691&#10;  A 15.11 13.04 105.3 0 1 229.5771 44.7355&#10;  A 15.11 13.04 105.3 0 1 238.1678 62.7509&#10;  A 15.11 13.04 105.3 0 1 221.6029 73.8845&#10;  Z&#10;  M 223.0441 68.8958&#10;  A 9.94 6.96 104.9 0 0 232.3260 61.0796&#10;  A 9.94 6.96 104.9 0 0 228.1559 49.6842&#10;  A 9.94 6.96 104.9 0 0 218.8740 57.5004&#10;  A 9.94 6.96 104.9 0 0 223.0441 68.8958&#10;  Z"/>
<path fill="#e3e8de" d="&#10;  M 150.87 69.50&#10;  L 160.86 66.50&#10;  A 0.61 0.61 0.0 0 1 161.62 66.92&#10;  L 162.65 70.54&#10;  A 0.61 0.61 0.0 0 1 162.23 71.29&#10;  L 146.64 75.95&#10;  A 0.61 0.61 0.0 0 1 145.89 75.54&#10;  L 138.01 49.08&#10;  A 0.61 0.61 0.0 0 1 138.42 48.32&#10;  L 142.94 47.04&#10;  A 0.61 0.61 0.0 0 1 143.69 47.45&#10;  L 150.11 69.09&#10;  A 0.61 0.61 0.0 0 0 150.87 69.50&#10;  Z"/>
<ellipse fill="#123d5a" cx="0.00" cy="0.00" transform="translate(225.60,59.29) rotate(104.9)" rx="9.94" ry="6.96"/>
<path fill="#e84a36" d="&#10;  M 307.43 196.98&#10;  A 118.48 118.48 0.0 0 1 188.95 315.46&#10;  A 118.48 118.48 0.0 0 1 70.47 196.98&#10;  A 118.48 118.48 0.0 0 1 188.95 78.50&#10;  A 118.48 118.48 0.0 0 1 307.43 196.98&#10;  Z&#10;  M 300.27 197.06&#10;  A 111.32 111.32 0.0 0 0 188.95 85.74&#10;  A 111.32 111.32 0.0 0 0 77.63 197.06&#10;  A 111.32 111.32 0.0 0 0 188.95 308.38&#10;  A 111.32 111.32 0.0 0 0 300.27 197.06&#10;  Z"/>
<path fill="#e3e8de" d="&#10;  M 87.42 105.14&#10;  L 94.12 111.21&#10;  Q 94.66 111.71 94.15 112.24&#10;  L 91.13 115.41&#10;  Q 90.58 115.99 90.00 115.45&#10;  L 69.81 96.92&#10;  A 0.52 0.52 0.0 0 1 69.77 96.19&#10;  Q 73.08 92.57 76.49 89.01&#10;  C 80.55 84.78 85.91 83.05 90.55 87.84&#10;  C 96.09 93.55 92.28 100.10 87.42 104.46&#10;  A 0.46 0.46 0.0 0 0 87.42 105.14&#10;  Z&#10;  M 77.29 95.78&#10;  L 83.41 101.33&#10;  A 0.45 0.45 0.0 0 0 84.05 101.30&#10;  L 86.40 98.71&#10;  A 5.09 4.19 -47.8 0 0 86.72 92.12&#10;  L 86.14 91.60&#10;  A 5.09 4.19 -47.8 0 0 79.61 92.56&#10;  L 77.26 95.15&#10;  A 0.45 0.45 0.0 0 0 77.29 95.78&#10;  Z"/>
<path fill="#123d5a" d="&#10;  M 300.27 197.06&#10;  A 111.32 111.32 0.0 0 1 188.95 308.38&#10;  A 111.32 111.32 0.0 0 1 77.63 197.06&#10;  A 111.32 111.32 0.0 0 1 188.95 85.74&#10;  A 111.32 111.32 0.0 0 1 300.27 197.06&#10;  Z&#10;  M 129.97 225.59&#10;  Q 130.12 238.77 129.94 251.87&#10;  Q 129.92 253.82 130.54 255.29&#10;  A 0.96 0.94 81.3 0 0 131.31 255.87&#10;  Q 132.73 256.03 134.16 256.03&#10;  Q 190.43 256.06 245.89 256.03&#10;  A 2.10 2.10 0.0 0 0 247.99 253.93&#10;  L 248.01 225.56&#10;  A 0.38 0.37 -67.3 0 1 248.65 225.29&#10;  L 259.05 235.64&#10;  A 3.24 3.23 22.4 0 1 260.01 237.94&#10;  L 260.05 253.86&#10;  A 2.17 2.17 0.0 0 0 262.22 256.02&#10;  L 275.87 256.03&#10;  A 1.65 1.64 -0.2 0 0 277.52 254.38&#10;  L 277.49 234.07&#10;  A 1.03 1.03 0.0 0 0 276.54 233.04&#10;  Q 271.00 232.65 265.93 232.83&#10;  A 3.50 3.49 -23.6 0 1 263.32 231.81&#10;  L 193.14 161.58&#10;  A 4.14 4.14 0.0 0 1 191.94 158.64&#10;  L 192.04 145.69&#10;  Q 192.04 144.75 192.94 145.03&#10;  Q 193.56 145.22 194.43 146.08&#10;  C 196.28 147.92 198.28 150.09 200.53 151.26&#10;  C 208.50 155.38 214.37 151.17 219.99 145.57&#10;  A 5.37 5.37 0.0 0 1 223.75 144.01&#10;  L 233.88 143.97&#10;  A 2.20 2.19 3.3 0 0 236.05 142.04&#10;  C 236.40 139.04 232.92 134.96 231.24 132.52&#10;  Q 230.89 132.02 231.26 131.53&#10;  C 233.11 129.06 236.42 125.14 236.10 122.00&#10;  Q 235.98 120.83 234.81 120.71&#10;  Q 228.48 120.04 222.11 120.64&#10;  C 217.25 121.10 215.13 124.61 211.62 127.31&#10;  Q 208.02 130.09 204.23 128.59&#10;  C 201.15 127.38 199.27 124.41 196.53 122.53&#10;  C 194.28 120.98 186.00 118.21 186.00 123.54&#10;  Q 186.01 141.51 186.05 158.33&#10;  C 186.05 160.05 185.33 161.21 184.17 162.37&#10;  Q 149.21 197.23 114.65 231.84&#10;  A 3.19 3.17 22.0 0 1 112.45 232.77&#10;  L 102.00 232.93&#10;  Q 100.48 232.95 100.48 234.47&#10;  L 100.48 254.39&#10;  A 1.66 1.65 0.0 0 0 102.14 256.04&#10;  L 115.97 256.03&#10;  A 2.00 2.00 0.0 0 0 117.97 254.04&#10;  L 118.02 238.16&#10;  A 3.76 3.71 -22.8 0 1 119.12 235.52&#10;  L 129.32 225.33&#10;  A 0.38 0.38 0.0 0 1 129.97 225.59&#10;  Z"/>
<path fill="#e3e8de" d="&#10;  M 302.04 96.43&#10;  C 297.74 89.23 289.91 93.70 286.30 98.82&#10;  C 282.62 104.06 285.62 110.02 291.94 110.45&#10;  Q 292.68 110.50 292.56 111.24&#10;  L 291.98 114.69&#10;  A 0.75 0.74 6.8 0 1 291.19 115.31&#10;  C 281.80 114.66 276.07 105.04 280.70 96.66&#10;  C 284.46 89.85 292.77 84.73 300.48 88.31&#10;  Q 307.21 91.44 307.81 99.22&#10;  A 0.92 0.91 85.5 0 1 306.98 100.20&#10;  L 303.74 100.50&#10;  Q 302.90 100.57 302.75 99.75&#10;  C 302.55 98.66 302.61 97.38 302.04 96.43&#10;  Z"/>
<path fill="#123d5a" d="&#10;  M 77.29 95.78&#10;  A 0.45 0.45 0.0 0 1 77.26 95.15&#10;  L 79.61 92.56&#10;  A 5.09 4.19 -47.8 0 1 86.14 91.60&#10;  L 86.72 92.12&#10;  A 5.09 4.19 -47.8 0 1 86.40 98.71&#10;  L 84.05 101.30&#10;  A 0.45 0.45 0.0 0 1 83.41 101.33&#10;  L 77.29 95.78&#10;  Z"/>
<path fill="#a3bae7" d="&#10;  M 129.97 225.59&#10;  A 0.38 0.38 0.0 0 0 129.32 225.33&#10;  L 119.12 235.52&#10;  A 3.76 3.71 -22.8 0 0 118.02 238.16&#10;  L 117.97 254.04&#10;  A 2.00 2.00 0.0 0 1 115.97 256.03&#10;  L 102.14 256.04&#10;  A 1.66 1.65 0.0 0 1 100.48 254.39&#10;  L 100.48 234.47&#10;  Q 100.48 232.95 102.00 232.93&#10;  L 112.45 232.77&#10;  A 3.19 3.17 22.0 0 0 114.65 231.84&#10;  Q 149.21 197.23 184.17 162.37&#10;  C 185.33 161.21 186.05 160.05 186.05 158.33&#10;  Q 186.01 141.51 186.00 123.54&#10;  C 186.00 118.21 194.28 120.98 196.53 122.53&#10;  C 199.27 124.41 201.15 127.38 204.23 128.59&#10;  Q 208.02 130.09 211.62 127.31&#10;  C 215.13 124.61 217.25 121.10 222.11 120.64&#10;  Q 228.48 120.04 234.81 120.71&#10;  Q 235.98 120.83 236.10 122.00&#10;  C 236.42 125.14 233.11 129.06 231.26 131.53&#10;  Q 230.89 132.02 231.24 132.52&#10;  C 232.92 134.96 236.40 139.04 236.05 142.04&#10;  A 2.20 2.19 3.3 0 1 233.88 143.97&#10;  L 223.75 144.01&#10;  A 5.37 5.37 0.0 0 0 219.99 145.57&#10;  C 214.37 151.17 208.50 155.38 200.53 151.26&#10;  C 198.28 150.09 196.28 147.92 194.43 146.08&#10;  Q 193.56 145.22 192.94 145.03&#10;  Q 192.04 144.75 192.04 145.69&#10;  L 191.94 158.64&#10;  A 4.14 4.14 0.0 0 0 193.14 161.58&#10;  L 263.32 231.81&#10;  A 3.50 3.49 -23.6 0 0 265.93 232.83&#10;  Q 271.00 232.65 276.54 233.04&#10;  A 1.03 1.03 0.0 0 1 277.49 234.07&#10;  L 277.52 254.38&#10;  A 1.65 1.64 -0.2 0 1 275.87 256.03&#10;  L 262.22 256.02&#10;  A 2.17 2.17 0.0 0 1 260.05 253.86&#10;  L 260.01 237.94&#10;  A 3.24 3.23 22.4 0 0 259.05 235.64&#10;  L 248.65 225.29&#10;  A 0.38 0.37 -67.3 0 0 248.01 225.56&#10;  L 247.99 253.93&#10;  A 2.10 2.10 0.0 0 1 245.89 256.03&#10;  Q 190.43 256.06 134.16 256.03&#10;  Q 132.73 256.03 131.31 255.87&#10;  A 0.96 0.94 81.3 0 1 130.54 255.29&#10;  Q 129.92 253.82 129.94 251.87&#10;  Q 130.12 238.77 129.97 225.59&#10;  Z&#10;  M 194.08 139.10&#10;  Q 196.00 139.74 197.46 141.13&#10;  C 201.52 144.99 206.35 150.19 212.02 144.59&#10;  C 216.21 140.44 219.98 137.42 226.34 137.99&#10;  Q 228.23 138.16 227.05 136.68&#10;  C 225.65 134.90 223.77 132.68 225.15 130.29&#10;  Q 226.32 128.28 227.63 126.72&#10;  Q 228.14 126.12 227.36 126.03&#10;  C 222.38 125.44 220.31 127.18 217.12 130.46&#10;  C 212.77 134.93 206.56 136.40 200.99 133.72&#10;  C 197.98 132.28 195.50 129.21 192.74 127.14&#10;  A 0.44 0.44 0.0 0 0 192.04 127.48&#10;  C 191.94 130.34 192.15 133.36 191.99 136.31&#10;  Q 191.88 138.38 194.08 139.10&#10;  Z&#10;  M 192.80 169.43&#10;  A 0.47 0.47 0.0 0 0 192.00 169.76&#10;  L 192.00 249.79&#10;  A 0.47 0.47 0.0 0 0 192.47 250.26&#10;  L 241.53 250.26&#10;  A 0.47 0.47 0.0 0 0 242.00 249.79&#10;  L 242.07 218.87&#10;  A 0.47 0.47 0.0 0 0 241.93 218.53&#10;  L 192.80 169.43&#10;  Z&#10;  M 154.10 210.45&#10;  Q 177.00 199.90 184.33 175.30&#10;  Q 185.08 172.77 185.15 170.13&#10;  Q 185.17 169.54 184.75 169.96&#10;  L 141.81 212.88&#10;  Q 140.32 214.36 142.39 214.03&#10;  Q 148.44 213.06 154.10 210.45&#10;  Z&#10;  M 146.10 219.65&#10;  C 151.59 224.26 153.66 230.66 153.57 238.13&#10;  A 0.50 0.50 0.0 0 0 154.06 238.63&#10;  L 163.07 238.74&#10;  Q 163.83 238.75 163.63 238.01&#10;  Q 163.25 236.68 162.79 235.36&#10;  C 160.55 228.83 166.76 220.93 173.42 220.98&#10;  Q 179.53 221.02 185.32 220.97&#10;  Q 186.00 220.97 186.00 220.29&#10;  L 186.02 189.29&#10;  Q 186.02 187.43 185.14 189.07&#10;  Q 172.75 212.19 146.18 219.29&#10;  A 0.21 0.21 0.0 0 0 146.10 219.65&#10;  Z&#10;  M 147.63 235.80&#10;  C 147.39 228.68 143.32 223.35 136.41 221.22&#10;  A 0.30 0.30 0.0 0 0 136.02 221.50&#10;  L 135.99 249.64&#10;  Q 135.99 250.30 136.64 250.29&#10;  L 147.28 250.26&#10;  A 0.40 0.40 0.0 0 0 147.68 249.87&#10;  Q 147.86 242.65 147.63 235.80&#10;  Z&#10;  M 185.91 238.15&#10;  L 186.09 227.72&#10;  A 0.63 0.63 0.0 0 0 185.47 227.07&#10;  L 174.55 226.88&#10;  A 6.21 5.70 1.0 0 0 168.24 232.48&#10;  L 168.24 232.77&#10;  A 6.21 5.70 1.0 0 0 174.35 238.58&#10;  L 185.27 238.77&#10;  A 0.63 0.63 0.0 0 0 185.91 238.15&#10;  Z&#10;  M 111.98 239.33&#10;  A 0.67 0.67 0.0 0 0 111.31 238.66&#10;  L 106.69 238.66&#10;  A 0.67 0.67 0.0 0 0 106.02 239.33&#10;  L 106.02 249.63&#10;  A 0.67 0.67 0.0 0 0 106.69 250.30&#10;  L 111.31 250.30&#10;  A 0.67 0.67 0.0 0 0 111.98 249.63&#10;  L 111.98 239.33&#10;  Z&#10;  M 271.9991 239.2752&#10;  A 0.59 0.59 0.0 0 0 271.4102 238.6842&#10;  L 266.6102 238.6758&#10;  A 0.59 0.59 0.0 0 0 266.0191 239.2648&#10;  L 266.0009 249.7248&#10;  A 0.59 0.59 0.0 0 0 266.5898 250.3158&#10;  L 271.3898 250.3242&#10;  A 0.59 0.59 0.0 0 0 271.9809 249.7352&#10;  L 271.9991 239.2752&#10;  Z&#10;  M 186.00 244.96&#10;  A 0.50 0.50 0.0 0 0 185.50 244.46&#10;  L 154.04 244.46&#10;  A 0.50 0.50 0.0 0 0 153.54 244.96&#10;  L 153.54 249.76&#10;  A 0.50 0.50 0.0 0 0 154.04 250.26&#10;  L 185.50 250.26&#10;  A 0.50 0.50 0.0 0 0 186.00 249.76&#10;  L 186.00 244.96&#10;  Z"/>
<path fill="#123d5a" d="&#10;  M 194.08 139.10&#10;  Q 191.88 138.38 191.99 136.31&#10;  C 192.15 133.36 191.94 130.34 192.04 127.48&#10;  A 0.44 0.44 0.0 0 1 192.74 127.14&#10;  C 195.50 129.21 197.98 132.28 200.99 133.72&#10;  C 206.56 136.40 212.77 134.93 217.12 130.46&#10;  C 220.31 127.18 222.38 125.44 227.36 126.03&#10;  Q 228.14 126.12 227.63 126.72&#10;  Q 226.32 128.28 225.15 130.29&#10;  C 223.77 132.68 225.65 134.90 227.05 136.68&#10;  Q 228.23 138.16 226.34 137.99&#10;  C 219.98 137.42 216.21 140.44 212.02 144.59&#10;  C 206.35 150.19 201.52 144.99 197.46 141.13&#10;  Q 196.00 139.74 194.08 139.10&#10;  Z"/>
<path fill="#123d5a" d="&#10;  M 192.80 169.43&#10;  L 241.93 218.53&#10;  A 0.47 0.47 0.0 0 1 242.07 218.87&#10;  L 242.00 249.79&#10;  A 0.47 0.47 0.0 0 1 241.53 250.26&#10;  L 192.47 250.26&#10;  A 0.47 0.47 0.0 0 1 192.00 249.79&#10;  L 192.00 169.76&#10;  A 0.47 0.47 0.0 0 1 192.80 169.43&#10;  Z&#10;  M 227.4303 227.5608&#10;  A 0.53 0.53 0.0 0 0 226.9115 227.0199&#10;  L 222.2125 226.9214&#10;  A 0.53 0.53 0.0 0 0 221.6715 227.4402&#10;  L 221.5697 232.2992&#10;  A 0.53 0.53 0.0 0 0 222.0885 232.8401&#10;  L 226.7875 232.9386&#10;  A 0.53 0.53 0.0 0 0 227.3285 232.4198&#10;  L 227.4303 227.5608&#10;  Z&#10;  M 236.2078 239.3003&#10;  A 0.69 0.69 0.0 0 0 235.5202 238.6079&#10;  L 230.9802 238.5921&#10;  A 0.69 0.69 0.0 0 0 230.2878 239.2797&#10;  L 230.2722 243.7397&#10;  A 0.69 0.69 0.0 0 0 230.9598 244.4321&#10;  L 235.4998 244.4479&#10;  A 0.69 0.69 0.0 0 0 236.1922 243.7603&#10;  L 236.2078 239.3003&#10;  Z"/>
<path fill="#123d5a" d="&#10;  M 154.10 210.45&#10;  Q 148.44 213.06 142.39 214.03&#10;  Q 140.32 214.36 141.81 212.88&#10;  L 184.75 169.96&#10;  Q 185.17 169.54 185.15 170.13&#10;  Q 185.08 172.77 184.33 175.30&#10;  Q 177.00 199.90 154.10 210.45&#10;  Z"/>
<path fill="#e84a36" d="&#10;  M 327.47 199.88&#10;  L 323.80 196.22&#10;  Q 321.79 194.21 324.63 194.06&#10;  C 326.52 193.96 329.89 193.25 330.95 191.38&#10;  C 331.64 190.18 332.28 188.03 333.38 187.23&#10;  A 0.64 0.63 -31.0 0 1 334.32 187.46&#10;  C 335.85 190.52 336.06 193.06 340.13 193.65&#10;  Q 341.77 193.88 343.48 194.17&#10;  A 0.80 0.79 27.9 0 1 343.90 195.53&#10;  C 342.60 196.75 339.68 199.13 339.70 201.02&#10;  Q 339.73 203.69 340.31 206.60&#10;  A 0.67 0.67 0.0 0 1 339.33 207.32&#10;  L 334.43 204.66&#10;  A 1.90 1.87 -44.2 0 0 332.67 204.65&#10;  L 327.76 207.26&#10;  A 0.50 0.49 72.6 0 1 327.04 206.88&#10;  Q 326.63 203.81 327.68 200.81&#10;  Q 327.87 200.28 327.47 199.88&#10;  Z"/>
<path fill="#e84a36" d="&#10;  M 50.42 200.72&#10;  Q 51.07 203.20 51.03 206.20&#10;  A 1.00 1.00 0.0 0 1 49.61 207.09&#10;  Q 47.76 206.23 46.20 205.07&#10;  C 44.25 203.63 40.39 206.24 38.66 207.28&#10;  A 0.61 0.60 -13.0 0 1 37.74 206.71&#10;  L 38.31 200.60&#10;  Q 38.38 199.85 37.84 199.32&#10;  L 33.88 195.39&#10;  Q 32.76 194.28 34.33 194.18&#10;  C 36.82 194.02 41.01 193.64 42.12 190.89&#10;  Q 42.83 189.15 43.80 187.59&#10;  A 0.80 0.79 -43.2 0 1 45.18 187.63&#10;  C 46.02 189.21 47.22 192.47 49.03 193.05&#10;  Q 51.46 193.83 54.25 194.11&#10;  A 0.80 0.80 0.0 0 1 54.82 195.36&#10;  Q 53.11 197.80 50.75 199.72&#10;  Q 50.26 200.11 50.42 200.72&#10;  Z"/>
<path fill="#123d5a" d="&#10;  M 153.57 238.13&#10;  C 153.66 230.66 151.59 224.26 146.10 219.65&#10;  A 0.21 0.21 0.0 0 1 146.18 219.29&#10;  Q 172.75 212.19 185.14 189.07&#10;  Q 186.02 187.43 186.02 189.29&#10;  L 186.00 220.29&#10;  Q 186.00 220.97 185.32 220.97&#10;  Q 179.53 221.02 173.42 220.98&#10;  C 166.76 220.93 160.55 228.83 162.79 235.36&#10;  Q 163.25 236.68 163.63 238.01&#10;  Q 163.83 238.75 163.07 238.74&#10;  L 154.06 238.63&#10;  A 0.50 0.50 0.0 0 1 153.57 238.13&#10;  Z"/>
<path fill="#123d5a" d="&#10;  M 136.41 221.22&#10;  C 143.32 223.35 147.39 228.68 147.63 235.80&#10;  Q 147.86 242.65 147.68 249.87&#10;  A 0.40 0.40 0.0 0 1 147.28 250.26&#10;  L 136.64 250.29&#10;  Q 135.99 250.30 135.99 249.64&#10;  L 136.02 221.50&#10;  A 0.30 0.30 0.0 0 1 136.41 221.22&#10;  Z"/>
<path fill="#123d5a" d="&#10;  M 185.91 238.15&#10;  A 0.63 0.63 0.0 0 1 185.27 238.77&#10;  L 174.35 238.58&#10;  A 6.21 5.70 1.0 0 1 168.24 232.77&#10;  L 168.24 232.48&#10;  A 6.21 5.70 1.0 0 1 174.55 226.88&#10;  L 185.47 227.07&#10;  A 0.63 0.63 0.0 0 1 186.09 227.72&#10;  L 185.91 238.15&#10;  Z"/>
<rect fill="#a3bae7" x="-2.88" y="-2.96" transform="translate(224.50,229.93) rotate(1.2)" width="5.76" height="5.92" rx="0.53"/>
<rect fill="#123d5a" x="106.02" y="238.66" width="5.96" height="11.64" rx="0.67"/>
<rect fill="#a3bae7" x="-2.96" y="-2.92" transform="translate(233.24,241.52) rotate(0.2)" width="5.92" height="5.84" rx="0.69"/>
<rect fill="#123d5a" x="-2.99" y="-5.82" transform="translate(269.00,244.50) rotate(0.1)" width="5.98" height="11.64" rx="0.59"/>
<path fill="#e3e8de" d="&#10;  M 324.27 275.56&#10;  L 337.10 251.85&#10;  A 0.62 0.62 0.0 0 1 337.95 251.61&#10;  L 340.75 253.17&#10;  A 0.62 0.62 0.0 0 1 340.99 254.01&#10;  L 326.03 281.60&#10;  A 0.62 0.62 0.0 0 1 325.19 281.84&#10;  L 297.83 267.02&#10;  A 0.62 0.62 0.0 0 1 297.58 266.17&#10;  L 312.12 239.38&#10;  A 0.62 0.62 0.0 0 1 312.97 239.14&#10;  L 315.78 240.72&#10;  A 0.62 0.62 0.0 0 1 316.02 241.56&#10;  L 303.65 264.31&#10;  A 0.62 0.62 0.0 0 0 303.89 265.15&#10;  L 323.42 275.81&#10;  A 0.62 0.62 0.0 0 0 324.27 275.56&#10;  Z"/>
<path fill="#e3e8de" d="&#10;  M 52.71 253.09&#10;  L 54.64 255.19&#10;  Q 55.27 255.87 54.48 256.35&#10;  L 52.77 257.40&#10;  A 1.09 1.09 0.0 0 1 51.42 257.22&#10;  L 45.13 250.53&#10;  Q 44.77 250.15 45.08 249.74&#10;  L 46.56 247.78&#10;  Q 46.90 247.33 47.42 247.53&#10;  Q 50.88 248.85 54.64 248.88&#10;  A 0.27 0.27 0.0 0 0 54.84 248.43&#10;  L 52.76 246.21&#10;  A 0.70 0.70 0.0 0 1 52.73 245.27&#10;  L 54.41 243.30&#10;  Q 54.74 242.91 55.26 242.98&#10;  Q 61.44 243.79 68.42 242.01&#10;  A 0.66 0.66 0.0 0 1 69.24 242.55&#10;  L 69.73 245.75&#10;  Q 69.84 246.45 69.13 246.53&#10;  Q 64.62 247.04 59.23 246.87&#10;  Q 58.06 246.84 58.73 247.80&#10;  L 59.10 248.32&#10;  Q 59.63 249.08 60.56 249.03&#10;  L 63.20 248.87&#10;  A 0.81 0.80 -0.7 0 1 64.06 249.70&#10;  L 63.97 252.03&#10;  Q 63.93 253.00 62.97 252.96&#10;  L 52.96 252.56&#10;  Q 52.20 252.53 52.71 253.09&#10;  Z"/>
<rect fill="#123d5a" x="153.54" y="244.46" width="32.46" height="5.80" rx="0.50"/>
<path fill="#e3e8de" d="&#10;  M 317.91 261.60&#10;  L 309.72 264.94&#10;  Q 308.63 265.39 308.41 264.23&#10;  L 307.99 262.05&#10;  A 1.19 1.19 0.0 0 1 308.70 260.73&#10;  L 316.78 257.30&#10;  A 0.50 0.50 0.0 0 0 317.06 256.67&#10;  Q 315.74 252.85 313.74 249.35&#10;  A 1.01 1.01 0.0 0 1 313.92 248.11&#10;  L 316.23 245.94&#10;  Q 316.78 245.42 317.17 246.06&#10;  C 318.83 248.79 320.11 251.84 321.14 254.84&#10;  Q 321.35 255.44 321.95 255.22&#10;  L 330.61 252.12&#10;  Q 331.43 251.82 331.64 252.67&#10;  L 332.41 255.78&#10;  Q 332.64 256.71 331.73 256.99&#10;  L 323.06 259.71&#10;  A 0.45 0.45 0.0 0 0 322.76 260.26&#10;  Q 324.25 265.80 324.57 270.83&#10;  Q 324.62 271.61 323.87 271.85&#10;  L 320.65 272.87&#10;  A 0.71 0.70 -8.3 0 1 319.73 272.19&#10;  Q 319.81 267.32 318.59 261.96&#10;  A 0.51 0.50 72.8 0 0 317.91 261.60&#10;  Z"/>
<path fill="#e3e8de" d="&#10;  M 51.86 263.67&#10;  Q 47.10 265.13 43.02 265.06&#10;  Q 42.19 265.05 42.32 264.23&#10;  L 42.73 261.54&#10;  Q 42.86 260.69 43.71 260.72&#10;  L 46.02 260.80&#10;  Q 46.93 260.82 46.21 260.28&#10;  L 38.18 254.09&#10;  Q 37.44 253.52 38.12 252.88&#10;  L 39.90 251.21&#10;  Q 40.56 250.59 41.25 251.17&#10;  L 49.35 257.99&#10;  A 0.58 0.57 -50.2 0 1 49.42 258.81&#10;  Q 48.85 259.50 48.00 259.90&#10;  Q 47.95 259.92 47.97 259.98&#10;  L 48.07 260.22&#10;  Q 48.18 260.48 48.46 260.40&#10;  C 56.13 258.16 62.19 254.94 68.89 251.08&#10;  A 0.57 0.57 0.0 0 1 69.68 251.31&#10;  L 72.79 257.26&#10;  Q 73.14 257.92 73.67 257.39&#10;  L 75.03 256.05&#10;  A 0.60 0.59 -42.2 0 1 75.90 256.09&#10;  L 77.98 258.52&#10;  A 0.94 0.93 -44.3 0 1 77.96 259.75&#10;  L 75.99 261.97&#10;  A 0.76 0.75 -38.5 0 0 75.89 262.84&#10;  L 78.42 267.52&#10;  Q 78.77 268.18 78.11 268.53&#10;  L 70.98 272.39&#10;  Q 69.99 272.93 69.45 271.94&#10;  L 63.01 260.03&#10;  A 0.92 0.92 0.0 0 0 61.76 259.66&#10;  L 61.40 259.86&#10;  A 0.64 0.63 -29.2 0 0 61.15 260.72&#10;  L 68.25 273.80&#10;  A 0.55 0.54 -29.2 0 1 68.03 274.54&#10;  Q 60.82 278.56 54.21 281.99&#10;  C 52.18 283.04 49.80 281.12 50.44 278.90&#10;  Q 50.58 278.42 50.21 278.09&#10;  Q 49.49 277.46 49.26 276.59&#10;  Q 49.15 276.17 49.52 275.95&#10;  L 54.69 273.00&#10;  Q 55.24 272.69 54.97 272.12&#10;  L 54.84 271.84&#10;  Q 54.73 271.60 54.50 271.72&#10;  L 48.98 274.65&#10;  Q 48.24 275.04 47.83 274.32&#10;  L 47.21 273.21&#10;  Q 46.82 272.53 47.51 272.15&#10;  L 52.19 269.62&#10;  A 1.12 1.11 73.9 0 0 52.77 268.56&#10;  L 52.75 268.26&#10;  A 0.37 0.37 0.0 0 0 52.21 267.96&#10;  L 46.05 271.18&#10;  Q 45.48 271.47 45.15 270.93&#10;  L 44.09 269.17&#10;  A 0.77 0.77 0.0 0 1 44.38 268.10&#10;  L 51.96 263.92&#10;  Q 53.12 263.28 51.86 263.67&#10;  Z&#10;  M 68.4515 257.0196&#10;  A 0.89 0.89 0.0 0 0 67.2447 256.6621&#10;  L 66.6471 256.9866&#10;  A 0.89 0.89 0.0 0 0 66.2896 258.1934&#10;  L 70.9085 266.7004&#10;  A 0.89 0.89 0.0 0 0 72.1153 267.0579&#10;  L 72.7129 266.7334&#10;  A 0.89 0.89 0.0 0 0 73.0704 265.5266&#10;  L 68.4515 257.0196&#10;  Z&#10;  M 59.2208 264.7480&#10;  A 0.78 0.78 0.0 0 0 58.1464 264.4980&#10;  L 56.0070 265.8297&#10;  A 0.78 0.78 0.0 0 0 55.7570 266.9041&#10;  L 55.7992 266.9720&#10;  A 0.78 0.78 0.0 0 0 56.8736 267.2220&#10;  L 59.0130 265.8903&#10;  A 0.78 0.78 0.0 0 0 59.2630 264.8159&#10;  L 59.2208 264.7480&#10;  Z&#10;  M 61.2324 268.6959&#10;  A 0.62 0.62 0.0 0 0 60.4009 268.4177&#10;  L 58.1098 269.5599&#10;  A 0.62 0.62 0.0 0 0 57.8316 270.3914&#10;  L 57.9476 270.6241&#10;  A 0.62 0.62 0.0 0 0 58.7791 270.9023&#10;  L 61.0702 269.7601&#10;  A 0.62 0.62 0.0 0 0 61.3484 268.9286&#10;  L 61.2324 268.6959&#10;  Z&#10;  M 63.3572 272.3058&#10;  A 0.67 0.67 0.0 0 0 62.4433 272.0558&#10;  L 60.0632 273.4134&#10;  A 0.67 0.67 0.0 0 0 59.8132 274.3273&#10;  L 59.8628 274.4142&#10;  A 0.67 0.67 0.0 0 0 60.7767 274.6642&#10;  L 63.1568 273.3066&#10;  A 0.67 0.67 0.0 0 0 63.4068 272.3927&#10;  L 63.3572 272.3058&#10;  Z&#10;  M 57.10 276.50&#10;  L 56.63 275.55&#10;  A 0.16 0.16 0.0 0 0 56.41 275.48&#10;  L 56.04 275.66&#10;  A 4.83 0.54 -26.3 0 0 51.95 278.28&#10;  L 52.09 278.55&#10;  A 4.83 0.54 -26.3 0 0 56.66 276.89&#10;  L 57.02 276.71&#10;  A 0.16 0.16 0.0 0 0 57.10 276.50&#10;  Z"/>
<rect fill="#123d5a" x="-1.23" y="-5.73" transform="translate(69.68,261.86) rotate(-28.5)" width="2.46" height="11.46" rx="0.89"/>
<rect fill="#123d5a" x="-2.04" y="-0.82" transform="translate(57.51,265.86) rotate(-31.9)" width="4.08" height="1.64" rx="0.78"/>
<rect fill="#123d5a" x="-1.90" y="-0.75" transform="translate(59.59,269.66) rotate(-26.5)" width="3.80" height="1.50" rx="0.62"/>
<rect fill="#123d5a" x="-2.04" y="-0.72" transform="translate(61.61,273.36) rotate(-29.7)" width="4.08" height="1.44" rx="0.67"/>
<path fill="#e3e8de" d="&#10;  M 73.86 291.93&#10;  Q 70.79 293.12 67.52 293.76&#10;  A 0.13 0.13 0.0 0 1 67.37 293.59&#10;  L 68.57 289.50&#10;  Q 68.65 289.23 68.92 289.19&#10;  Q 74.03 288.41 78.91 286.10&#10;  A 0.48 0.48 0.0 0 0 79.01 285.30&#10;  L 76.47 283.19&#10;  Q 76.01 282.80 76.42 282.37&#10;  L 78.63 280.01&#10;  A 0.69 0.69 0.0 0 1 79.61 279.99&#10;  L 82.32 282.65&#10;  Q 82.97 283.28 83.60 282.63&#10;  L 85.34 280.85&#10;  Q 85.81 280.38 85.27 279.98&#10;  L 82.45 277.87&#10;  A 0.46 0.46 0.0 0 1 82.30 277.31&#10;  L 83.58 274.47&#10;  Q 83.71 274.18 83.97 274.36&#10;  Q 88.77 277.66 93.64 279.92&#10;  Q 94.32 280.23 94.25 280.98&#10;  L 93.93 284.23&#10;  A 0.45 0.45 0.0 0 1 93.27 284.58&#10;  L 90.35 282.97&#10;  Q 89.74 282.63 89.26 283.13&#10;  L 86.62 285.90&#10;  Q 86.13 286.41 86.65 286.88&#10;  L 88.57 288.62&#10;  Q 89.00 289.01 88.67 289.50&#10;  Q 87.82 290.76 86.42 291.80&#10;  Q 85.99 292.11 85.56 291.80&#10;  Q 84.91 291.32 84.38 290.66&#10;  Q 82.66 288.50 82.64 291.26&#10;  L 82.61 296.15&#10;  Q 82.61 297.04 81.74 297.19&#10;  L 78.74 297.71&#10;  Q 78.01 297.83 78.26 297.13&#10;  Q 78.70 295.87 78.86 294.58&#10;  Q 78.97 293.74 78.38 294.36&#10;  L 69.73 303.44&#10;  Q 69.16 304.05 68.54 303.48&#10;  L 66.50 301.60&#10;  Q 65.82 300.98 66.46 300.32&#10;  L 74.17 292.41&#10;  Q 75.10 291.46 73.86 291.93&#10;  Z"/>
<path fill="#123d5a" d="&#10;  M 57.10 276.50&#10;  A 0.16 0.16 0.0 0 1 57.02 276.71&#10;  L 56.66 276.89&#10;  A 4.83 0.54 -26.3 0 1 52.09 278.55&#10;  L 51.95 278.28&#10;  A 4.83 0.54 -26.3 0 1 56.04 275.66&#10;  L 56.41 275.48&#10;  A 0.16 0.16 0.0 0 1 56.63 275.55&#10;  L 57.10 276.50&#10;  Z"/>
<path fill="#e3e8de" d="&#10;  M 299.11 280.85&#10;  L 301.57 283.39&#10;  A 0.52 0.52 0.0 0 1 301.56 284.13&#10;  L 297.18 288.25&#10;  A 0.52 0.52 0.0 0 0 297.17 288.99&#10;  L 306.02 298.09&#10;  A 0.52 0.52 0.0 0 0 306.76 298.10&#10;  L 311.66 293.26&#10;  A 0.52 0.52 0.0 0 1 312.40 293.26&#10;  L 314.89 295.78&#10;  A 0.52 0.52 0.0 0 1 314.88 296.52&#10;  L 300.03 310.93&#10;  A 0.52 0.52 0.0 0 1 299.30 310.93&#10;  L 296.77 308.40&#10;  A 0.52 0.52 0.0 0 1 296.78 307.65&#10;  L 302.56 302.11&#10;  A 0.52 0.52 0.0 0 0 302.58 301.37&#10;  L 293.81 292.30&#10;  A 0.52 0.52 0.0 0 0 293.08 292.29&#10;  L 288.39 296.75&#10;  A 0.52 0.52 0.0 0 1 287.64 296.72&#10;  L 285.37 294.11&#10;  A 0.52 0.52 0.0 0 1 285.41 293.40&#10;  L 289.91 289.06&#10;  A 0.52 0.52 0.0 0 0 289.93 288.33&#10;  L 283.01 281.16&#10;  A 0.52 0.52 0.0 0 1 283.04 280.41&#10;  L 285.86 277.89&#10;  A 0.52 0.52 0.0 0 1 286.58 277.91&#10;  L 293.39 285.03&#10;  A 0.52 0.52 0.0 0 0 294.14 285.04&#10;  L 298.37 280.84&#10;  A 0.52 0.52 0.0 0 1 299.11 280.85&#10;  Z"/>
<path fill="#e3e8de" d="&#10;  M 100.4737 304.6379&#10;  A 0.54 0.54 0.0 0 1 99.7102 304.6499&#10;  L 88.0622 293.3622&#10;  A 0.54 0.54 0.0 0 1 88.0502 292.5986&#10;  L 96.2063 284.1821&#10;  A 0.54 0.54 0.0 0 1 96.9698 284.1701&#10;  L 108.6178 295.4578&#10;  A 0.54 0.54 0.0 0 1 108.6298 296.2214&#10;  L 100.4737 304.6379&#10;  Z&#10;  M 102.6438 295.8945&#10;  A 0.63 0.63 0.0 0 0 102.6205 295.0039&#10;  L 97.3688 290.0202&#10;  A 0.63 0.63 0.0 0 0 96.4781 290.0435&#10;  L 93.8762 292.7855&#10;  A 0.63 0.63 0.0 0 0 93.8995 293.6761&#10;  L 99.1512 298.6598&#10;  A 0.63 0.63 0.0 0 0 100.0419 298.6365&#10;  L 102.6438 295.8945&#10;  Z"/>
<rect fill="#123d5a" x="-4.25" y="-2.52" transform="translate(98.26,294.34) rotate(43.5)" width="8.50" height="5.04" rx="0.63"/>
<path fill="#e3e8de" d="&#10;  M 279.66 297.91&#10;  L 274.73 302.71&#10;  Q 274.14 303.28 273.57 302.70&#10;  L 271.80 300.91&#10;  Q 271.11 300.21 271.84 299.55&#10;  L 275.38 296.27&#10;  A 0.44 0.44 0.0 0 0 275.17 295.51&#10;  L 271.08 294.66&#10;  Q 270.58 294.55 270.74 294.07&#10;  L 271.63 291.32&#10;  A 0.85 0.84 -76.7 0 1 272.56 290.74&#10;  L 277.03 291.46&#10;  Q 277.88 291.59 277.64 292.42&#10;  L 277.18 293.96&#10;  Q 276.89 294.95 277.63 294.23&#10;  Q 278.42 293.46 279.07 292.51&#10;  Q 279.50 291.87 280.25 291.80&#10;  L 282.13 291.61&#10;  Q 282.69 291.56 282.85 292.10&#10;  L 285.04 299.81&#10;  Q 285.16 300.21 285.57 300.19&#10;  L 290.73 300.02&#10;  Q 291.80 299.98 291.91 301.05&#10;  L 292.21 304.17&#10;  Q 292.28 304.88 291.58 304.74&#10;  L 289.00 304.23&#10;  Q 287.92 304.02 288.69 304.81&#10;  L 297.56 313.94&#10;  Q 297.99 314.37 297.57 314.82&#10;  L 295.28 317.29&#10;  Q 294.87 317.73 294.45 317.30&#10;  L 285.88 308.44&#10;  A 0.46 0.46 0.0 0 0 285.10 308.71&#10;  L 284.70 312.31&#10;  A 0.53 0.52 -73.6 0 1 283.95 312.72&#10;  L 280.54 311.07&#10;  A 0.85 0.84 -69.0 0 1 280.10 310.07&#10;  Q 281.78 304.25 280.28 298.08&#10;  Q 280.12 297.45 279.66 297.91&#10;  Z"/>
<path fill="#e3e8de" d="&#10;  M 89.66 307.49&#10;  L 93.55 311.11&#10;  A 0.64 0.64 0.0 0 1 93.57 312.03&#10;  L 91.68 313.91&#10;  A 0.64 0.64 0.0 0 1 90.78 313.91&#10;  L 87.07 310.23&#10;  A 0.64 0.64 0.0 0 0 86.19 310.21&#10;  L 84.74 311.52&#10;  A 0.64 0.64 0.0 0 0 84.74 312.46&#10;  L 89.89 317.29&#10;  A 0.64 0.64 0.0 0 1 89.90 318.21&#10;  L 87.90 320.21&#10;  A 0.64 0.64 0.0 0 1 87.01 320.22&#10;  L 72.28 306.01&#10;  A 0.64 0.64 0.0 0 1 72.26 305.11&#10;  L 74.22 303.07&#10;  A 0.64 0.64 0.0 0 1 75.13 303.06&#10;  L 80.75 308.56&#10;  A 0.64 0.64 0.0 0 0 81.71 308.48&#10;  L 82.85 306.95&#10;  A 0.64 0.64 0.0 0 0 82.77 306.10&#10;  L 78.87 302.52&#10;  A 0.64 0.64 0.0 0 1 78.84 301.61&#10;  L 80.74 299.65&#10;  A 0.64 0.64 0.0 0 1 81.64 299.63&#10;  L 85.54 303.37&#10;  A 0.64 0.64 0.0 0 0 86.42 303.38&#10;  L 87.61 302.24&#10;  A 0.64 0.64 0.0 0 0 87.61 301.32&#10;  L 83.14 297.00&#10;  A 0.64 0.64 0.0 0 1 83.11 296.11&#10;  L 84.91 294.10&#10;  A 0.64 0.64 0.0 0 1 85.83 294.06&#10;  L 99.06 306.86&#10;  A 0.64 0.64 0.0 0 1 99.05 307.80&#10;  L 97.05 309.58&#10;  A 0.64 0.64 0.0 0 1 96.18 309.56&#10;  L 91.69 305.23&#10;  A 0.64 0.64 0.0 0 0 90.76 305.27&#10;  L 89.61 306.60&#10;  A 0.64 0.64 0.0 0 0 89.66 307.49&#10;  Z"/>
<path fill="#e3e8de" d="&#10;  M 119.66 302.27&#10;  L 122.24 309.10&#10;  A 0.50 0.50 0.0 0 1 121.92 309.75&#10;  L 118.62 310.82&#10;  A 0.50 0.50 0.0 0 1 117.99 310.50&#10;  L 115.68 303.25&#10;  A 0.50 0.50 0.0 0 1 116.05 302.61&#10;  L 119.09 301.96&#10;  A 0.50 0.50 0.0 0 1 119.66 302.27&#10;  Z"/>
<path fill="#e3e8de" d="&#10;  M 243.16 314.91&#10;  L 248.04 312.39&#10;  Q 248.64 312.08 248.92 312.69&#10;  L 250.22 315.44&#10;  A 0.67 0.66 -25.8 0 1 249.91 316.32&#10;  L 243.58 319.39&#10;  Q 242.75 319.79 243.16 320.61&#10;  L 243.96 322.18&#10;  A 0.89 0.89 0.0 0 0 245.16 322.57&#10;  L 249.96 320.13&#10;  Q 250.52 319.84 251.07 320.15&#10;  L 251.40 320.33&#10;  A 0.44 0.43 14.4 0 0 252.05 319.95&#10;  Q 251.96 312.63 249.73 305.94&#10;  Q 249.51 305.30 250.16 305.11&#10;  L 253.59 304.08&#10;  A 0.58 0.57 75.2 0 1 254.31 304.50&#10;  L 255.37 308.89&#10;  Q 255.60 309.84 256.48 309.40&#10;  L 264.46 305.47&#10;  Q 265.47 304.98 265.91 306.01&#10;  L 266.75 307.94&#10;  Q 267.25 309.11 266.06 309.54&#10;  L 265.17 309.87&#10;  Q 264.61 310.07 264.81 310.64&#10;  Q 267.09 317.21 267.08 323.75&#10;  A 0.74 0.74 0.0 0 0 267.50 324.42&#10;  Q 271.72 326.43 275.72 326.32&#10;  Q 276.43 326.30 276.28 327.00&#10;  L 275.55 330.56&#10;  Q 275.38 331.35 274.58 331.30&#10;  Q 270.59 331.06 267.27 329.31&#10;  A 0.64 0.64 0.0 0 0 266.37 329.68&#10;  C 265.51 332.47 264.49 334.96 262.82 337.44&#10;  Q 262.21 338.34 261.32 337.72&#10;  L 259.12 336.18&#10;  Q 258.26 335.58 258.89 334.73&#10;  Q 261.50 331.24 262.28 327.17&#10;  Q 262.38 326.62 261.97 326.23&#10;  L 257.09 321.59&#10;  Q 256.59 321.11 256.55 321.80&#10;  L 256.41 323.87&#10;  A 0.58 0.58 0.0 0 1 255.62 324.38&#10;  L 253.45 323.55&#10;  Q 252.52 323.19 252.98 324.07&#10;  Q 255.52 328.98 258.12 335.36&#10;  C 259.40 338.50 257.14 340.67 254.26 341.89&#10;  Q 253.66 342.15 253.10 341.80&#10;  Q 251.78 340.96 251.05 339.51&#10;  A 0.65 0.65 0.0 0 1 251.28 338.68&#10;  Q 251.88 338.30 252.54 338.17&#10;  A 1.43 1.43 0.0 0 0 253.62 336.27&#10;  Q 251.78 331.15 249.25 326.21&#10;  A 0.97 0.96 65.6 0 0 248.03 325.75&#10;  L 247.14 326.12&#10;  Q 246.26 326.48 246.61 327.37&#10;  C 248.82 333.03 250.57 337.47 249.15 343.75&#10;  A 0.77 0.77 0.0 0 1 248.08 344.28&#10;  Q 246.75 343.69 245.27 343.67&#10;  Q 244.62 343.66 244.74 343.03&#10;  C 246.12 335.47 242.72 328.89 239.16 322.32&#10;  Q 238.86 321.77 238.30 322.04&#10;  L 236.27 323.02&#10;  Q 235.50 323.40 235.15 322.61&#10;  L 234.13 320.29&#10;  Q 233.75 319.43 234.61 319.04&#10;  L 239.60 316.74&#10;  Q 240.22 316.45 239.76 315.95&#10;  L 236.86 312.83&#10;  A 0.21 0.21 0.0 0 1 236.87 312.53&#10;  L 239.36 310.35&#10;  Q 239.76 309.99 240.17 310.35&#10;  L 243.13 312.95&#10;  Q 243.69 313.44 243.30 314.09&#10;  L 242.94 314.67&#10;  Q 242.63 315.19 243.16 314.91&#10;  Z&#10;  M 260.94 312.71&#10;  A 0.52 0.52 0.0 0 0 260.19 312.36&#10;  L 256.92 314.03&#10;  A 0.52 0.52 0.0 0 0 256.77 314.84&#10;  L 261.71 320.46&#10;  A 0.52 0.52 0.0 0 0 262.61 320.00&#10;  L 260.94 312.71&#10;  Z"/>
<path fill="#e3e8de" d="&#10;  M 132.95 316.76&#10;  L 139.60 319.87&#10;  A 0.58 0.58 0.0 0 1 139.85 320.69&#10;  L 136.67 325.99&#10;  A 0.58 0.58 0.0 0 0 136.94 326.83&#10;  L 139.45 327.87&#10;  A 0.58 0.58 0.0 0 1 139.75 328.65&#10;  L 138.40 331.46&#10;  A 0.58 0.58 0.0 0 1 137.61 331.73&#10;  L 116.79 321.32&#10;  A 0.58 0.58 0.0 0 1 116.54 320.52&#10;  L 117.97 317.88&#10;  A 0.58 0.58 0.0 0 1 118.75 317.64&#10;  L 123.19 319.95&#10;  A 0.58 0.58 0.0 0 0 123.93 319.79&#10;  L 125.23 318.06&#10;  A 0.58 0.58 0.0 0 0 125.02 317.19&#10;  L 122.35 315.88&#10;  A 0.58 0.58 0.0 0 1 122.09 315.11&#10;  L 123.27 312.61&#10;  A 0.58 0.58 0.0 0 1 124.04 312.33&#10;  L 127.65 314.02&#10;  A 0.58 0.58 0.0 0 0 128.25 313.95&#10;  L 129.51 312.96&#10;  A 0.58 0.58 0.0 0 0 129.40 311.98&#10;  L 124.27 309.46&#10;  A 0.58 0.58 0.0 0 1 123.99 308.71&#10;  L 125.17 306.03&#10;  A 0.58 0.58 0.0 0 1 125.96 305.74&#10;  L 144.52 314.97&#10;  A 0.58 0.58 0.0 0 1 144.79 315.73&#10;  L 143.61 318.31&#10;  A 0.58 0.58 0.0 0 1 142.83 318.59&#10;  L 134.22 314.45&#10;  A 0.58 0.58 0.0 0 0 133.48 314.67&#10;  L 132.70 315.94&#10;  A 0.58 0.58 0.0 0 0 132.95 316.76&#10;  Z&#10;  M 130.37 319.88&#10;  A 0.92 0.92 0.0 0 0 129.32 320.09&#10;  L 128.32 321.15&#10;  A 0.92 0.92 0.0 0 0 128.57 322.60&#10;  L 131.82 324.24&#10;  A 0.92 0.92 0.0 0 0 133.05 323.84&#10;  L 133.74 322.48&#10;  A 0.92 0.92 0.0 0 0 133.30 321.23&#10;  L 130.37 319.88&#10;  Z"/>
<path fill="#e3e8de" d="&#10;  M 115.95 328.17&#10;  L 117.41 324.71&#10;  A 0.72 0.71 24.4 0 1 118.39 324.35&#10;  L 134.38 332.27&#10;  A 0.87 0.86 26.7 0 1 134.77 333.43&#10;  L 129.31 344.36&#10;  Q 129.03 344.91 128.46 344.70&#10;  Q 126.10 343.85 124.79 341.88&#10;  Q 124.48 341.41 123.99 341.16&#10;  L 117.40 337.86&#10;  Q 116.88 337.59 116.30 337.72&#10;  Q 114.31 338.18 112.59 336.88&#10;  Q 111.75 336.24 112.21 335.30&#10;  L 114.31 330.98&#10;  Q 114.57 330.45 113.99 330.55&#10;  L 105.51 332.03&#10;  Q 104.59 332.19 104.53 331.25&#10;  L 104.39 328.80&#10;  Q 104.34 328.05 104.99 327.65&#10;  Q 106.93 326.45 107.93 324.45&#10;  Q 110.03 320.25 112.17 315.91&#10;  A 0.65 0.65 0.0 0 0 111.86 315.03&#10;  L 108.97 313.71&#10;  Q 108.39 313.44 108.68 312.87&#10;  L 110.09 310.13&#10;  Q 110.47 309.40 111.20 309.78&#10;  L 117.66 313.12&#10;  Q 118.26 313.43 117.96 314.04&#10;  L 111.76 326.27&#10;  A 0.32 0.32 0.0 0 0 112.03 326.73&#10;  Q 113.46 326.82 114.84 326.41&#10;  Q 115.50 326.22 115.51 326.91&#10;  L 115.53 328.08&#10;  Q 115.55 329.12 115.95 328.17&#10;  Z&#10;  M 128.8300 335.0470&#10;  A 0.91 0.91 0.0 0 0 128.4259 333.8252&#10;  L 120.7430 329.9610&#10;  A 0.91 0.91 0.0 0 0 119.5211 330.3651&#10;  L 118.2900 332.8130&#10;  A 0.91 0.91 0.0 0 0 118.6941 334.0348&#10;  L 126.3770 337.8990&#10;  A 0.91 0.91 0.0 0 0 127.5989 337.4949&#10;  L 128.8300 335.0470&#10;  Z"/>
<path fill="#123d5a" d="&#10;  M 260.94 312.71&#10;  L 262.61 320.00&#10;  A 0.52 0.52 0.0 0 1 261.71 320.46&#10;  L 256.77 314.84&#10;  A 0.52 0.52 0.0 0 1 256.92 314.03&#10;  L 260.19 312.36&#10;  A 0.52 0.52 0.0 0 1 260.94 312.71&#10;  Z"/>
<path fill="#e3e8de" d="&#10;  M 165.43 319.04&#10;  L 169.45 318.65&#10;  A 0.41 0.41 0.0 0 1 169.87 318.90&#10;  L 172.01 324.10&#10;  A 0.41 0.41 0.0 0 0 172.33 324.35&#10;  L 184.71 326.26&#10;  A 0.41 0.41 0.0 0 1 185.05 326.72&#10;  L 184.65 329.80&#10;  A 0.41 0.41 0.0 0 1 184.18 330.16&#10;  L 151.40 325.10&#10;  A 0.41 0.41 0.0 0 1 151.06 324.65&#10;  L 151.36 321.60&#10;  A 0.41 0.41 0.0 0 1 151.83 321.24&#10;  L 166.06 323.41&#10;  A 0.41 0.41 0.0 0 0 166.50 322.84&#10;  L 165.09 319.61&#10;  A 0.41 0.41 0.0 0 1 165.43 319.04&#10;  Z"/>
<path fill="#e3e8de" d="&#10;  M 216.48 338.12&#10;  Q 216.43 337.82 216.13 337.86&#10;  L 208.20 338.99&#10;  Q 207.80 339.04 207.81 339.45&#10;  Q 208.15 349.27 201.52 355.14&#10;  Q 201.09 355.52 200.61 355.22&#10;  L 197.30 353.13&#10;  A 0.46 0.45 -49.0 0 1 197.25 352.40&#10;  Q 202.78 347.65 203.01 340.44&#10;  Q 203.03 339.83 202.42 339.92&#10;  L 195.61 340.98&#10;  Q 195.17 341.04 195.09 340.60&#10;  L 194.43 337.05&#10;  Q 194.37 336.68 194.74 336.62&#10;  L 202.43 335.45&#10;  Q 202.84 335.39 202.77 334.98&#10;  L 201.49 327.01&#10;  A 0.45 0.44 81.4 0 0 200.99 326.64&#10;  L 194.97 327.57&#10;  A 0.70 0.70 0.0 0 1 194.18 326.97&#10;  L 193.84 324.03&#10;  A 0.75 0.75 0.0 0 1 194.47 323.20&#10;  L 224.45 318.61&#10;  Q 224.99 318.52 225.07 319.07&#10;  L 225.57 322.29&#10;  Q 225.65 322.83 225.11 322.92&#10;  L 220.30 323.69&#10;  Q 219.21 323.86 219.37 324.96&#10;  L 220.35 331.58&#10;  Q 220.50 332.61 221.53 332.46&#10;  L 227.62 331.57&#10;  Q 228.13 331.50 228.20 332.02&#10;  L 228.67 335.47&#10;  Q 228.73 335.92 228.28 335.99&#10;  L 221.93 336.92&#10;  A 0.74 0.74 0.0 0 0 221.31 337.76&#10;  L 223.44 351.51&#10;  Q 223.53 352.05 222.99 352.14&#10;  L 219.24 352.79&#10;  Q 218.73 352.88 218.66 352.38&#10;  L 216.48 338.12&#10;  Z&#10;  M 214.4312 325.0155&#10;  A 0.45 0.45 0.0 0 0 213.9164 324.6414&#10;  L 206.5482 325.8084&#10;  A 0.45 0.45 0.0 0 0 206.1742 326.3233&#10;  L 207.4288 334.2445&#10;  A 0.45 0.45 0.0 0 0 207.9436 334.6186&#10;  L 215.3118 333.4516&#10;  A 0.45 0.45 0.0 0 0 215.6858 332.9367&#10;  L 214.4312 325.0155&#10;  Z"/>
<path fill="#123d5a" d="&#10;  M 130.37 319.88&#10;  L 133.30 321.23&#10;  A 0.92 0.92 0.0 0 1 133.74 322.48&#10;  L 133.05 323.84&#10;  A 0.92 0.92 0.0 0 1 131.82 324.24&#10;  L 128.57 322.60&#10;  A 0.92 0.92 0.0 0 1 128.32 321.15&#10;  L 129.32 320.09&#10;  A 0.92 0.92 0.0 0 1 130.37 319.88&#10;  Z"/>
<rect fill="#123d5a" x="-4.18" y="-4.46" transform="translate(210.93,329.63) rotate(-9.0)" width="8.36" height="8.92" rx="0.45"/>
<rect fill="#e3e8de" x="-11.96" y="-1.84" transform="translate(167.21,331.43) rotate(8.6)" width="23.92" height="3.68" rx="0.47"/>
<rect fill="#123d5a" x="-5.21" y="-2.28" transform="translate(123.56,333.93) rotate(26.7)" width="10.42" height="4.56" rx="0.91"/>
<rect fill="#e3e8de" x="-11.96" y="-1.84" transform="translate(166.34,337.14) rotate(8.8)" width="23.92" height="3.68" rx="0.52"/>
<path fill="#e3e8de" d="&#10;  M 155.38 351.70&#10;  Q 153.97 352.18 152.15 351.72&#10;  Q 151.62 351.58 151.70 351.04&#10;  L 153.34 340.04&#10;  Q 153.42 339.50 153.96 339.58&#10;  L 177.33 343.16&#10;  A 0.60 0.60 0.0 0 1 177.83 343.83&#10;  L 176.24 354.31&#10;  Q 176.15 354.91 175.54 354.98&#10;  Q 172.85 355.26 171.34 353.77&#10;  Q 170.77 353.20 169.98 353.06&#10;  Q 164.61 352.13 158.72 351.33&#10;  Q 157.10 351.11 155.38 351.70&#10;  Z&#10;  M 172.5260 346.7897&#10;  A 0.50 0.50 0.0 0 0 172.1064 346.2205&#10;  L 157.7892 344.0552&#10;  A 0.50 0.50 0.0 0 0 157.2200 344.4749&#10;  L 156.8940 346.6303&#10;  A 0.50 0.50 0.0 0 0 157.3136 347.1995&#10;  L 171.6308 349.3648&#10;  A 0.50 0.50 0.0 0 0 172.2000 348.9451&#10;  L 172.5260 346.7897&#10;  Z"/>
<rect fill="#123d5a" x="-7.74" y="-1.59" transform="translate(164.71,346.71) rotate(8.6)" width="15.48" height="3.18" rx="0.50"/>
</svg>