<?xml version="1.0" encoding="UTF-8"?>
<svg version="1.1" xmlns="http://www.w3.org/2000/svg" width="280" height="280">
<path d="M0 0 C0.71414062 0.34675781 1.42828125 0.69351562 2.1640625 1.05078125 C9.57777987 4.75763993 14.38678195 11.30552463 17 19 C19.34155181 26.8761288 18.66430239 35.67139523 15 43 C12.89085716 46.20277246 10.68946331 49.25869161 8 52 C7.34 52 6.68 52 6 52 C6 52.66 6 53.32 6 54 C4.58521865 54.64995297 3.16808513 55.29478722 1.75 55.9375 C0.96109375 56.29714844 0.1721875 56.65679687 -0.640625 57.02734375 C-7.39680402 59.81258974 -15.77011625 60.69570783 -22.640625 57.94140625 C-32.70336976 51.62652051 -36.10445457 43.17339884 -39 32 C-42.48122908 33.98927376 -45.50455166 36.16290326 -48.5625 38.75 C-57.29951088 45.80731728 -65.73937137 50.81182739 -76.8515625 52.41015625 C-87.30723562 53.92381209 -97.53040525 56.00708093 -107.25 60.25 C-119.06405896 64.72208789 -133.90877297 62.20916383 -146 60 C-145.71125 61.14855469 -145.4225 62.29710938 -145.125 63.48046875 C-141.49469079 78.39700594 -141.2578075 89.43970351 -145.7109375 104.21020508 C-152.24590148 125.9058965 -153.10667764 151.13579066 -142.875 171.875 C-141.93121658 173.59141441 -140.97482326 175.30102232 -140 177 C-139.3244 178.32882913 -138.65417704 179.66049463 -138 181 C-137.34 181 -136.68 181 -136 181 C-135.360625 181.825 -134.72125 182.65 -134.0625 183.5 C-122.82753624 197.39587623 -103.16964751 202.88583075 -86.04541016 204.82128906 C-54.99223666 207.53445724 -20.84343656 200.33809401 4 181 C4.62003906 180.54367188 5.24007812 180.08734375 5.87890625 179.6171875 C14.60639357 172.78358445 22.75722236 161.37679928 24.40625 150.26171875 C24.57986116 145.3789048 24.19019018 141.89912133 21 138 C20.5875 137.443125 20.175 136.88625 19.75 136.3125 C12.96761117 131.22570838 3.27972463 132.504405 -4.58203125 133.60546875 C-11.98891754 134.71910433 -19.38436853 135.95110294 -26.69921875 137.5703125 C-33.45363073 138.83174767 -40.08178445 139.20822869 -46.9375 139.25 C-48.20110352 139.2809375 -48.20110352 139.2809375 -49.49023438 139.3125 C-56.75478681 139.35723935 -63.56318333 138.14601544 -69.4375 133.625 C-73.27318664 129.69576003 -74.29641907 126.11744224 -74.375 120.6875 C-74.23567419 113.78622839 -72.06915249 109.46061377 -67.6875 104.25 C-58.43071529 96.50013373 -47.71607448 94.55019566 -36.05297852 92.69238281 C-34.06841023 92.37594239 -32.08594533 92.04829676 -30.10351562 91.71875 C-18.43819672 89.81660439 -7.16486001 88.79295819 4.65722656 88.75976562 C6.732833 88.75008011 8.8074376 88.71895997 10.8828125 88.6875 C28.36586122 88.54816079 43.86202429 92.20146567 56.75 104.59375 C68.59610266 117.26249867 72.6419272 131.8762889 72.3359375 148.8125 C71.52326745 166.83899928 62.73132156 183.87501264 52 198 C51.33484375 198.9178125 50.6696875 199.835625 49.984375 200.78125 C41.49101032 212.39088517 32.77075218 223.56204672 21 232 C19.95779297 232.81597656 19.95779297 232.81597656 18.89453125 233.6484375 C-2.64935109 249.89214347 -30.07574982 259.12441463 -57 260 C-57.63454102 260.02578125 -58.26908203 260.0515625 -58.92285156 260.078125 C-97.9220591 261.49692291 -134.54717559 249.91662432 -164 224 C-165.67663152 222.34335813 -167.34424406 220.67750643 -169 219 C-169.53882813 218.50757813 -170.07765625 218.01515625 -170.6328125 217.5078125 C-190.71603644 198.89665733 -202.37462958 171.52100879 -207 145 C-207.27650391 143.4840625 -207.27650391 143.4840625 -207.55859375 141.9375 C-209.40169173 125.49641359 -208.9898281 108.09553293 -205 92 C-204.70198486 90.7948877 -204.70198486 90.7948877 -204.39794922 89.56542969 C-201.33213919 77.60991881 -197.10562084 66.71923623 -191 56 C-190.62891113 55.3404834 -190.25782227 54.6809668 -189.87548828 54.00146484 C-182.12335468 40.41142631 -172.38712773 27.69029919 -160 18 C-159.09507812 17.2471875 -158.19015625 16.494375 -157.2578125 15.71875 C-148.51428312 8.57347011 -139.03836759 3.1236575 -129 -2 C-128.35224609 -2.33660645 -127.70449219 -2.67321289 -127.03710938 -3.02001953 C-88.47887756 -22.71298034 -37.5951565 -20.85758682 0 0 Z " fill="#F85330" transform="translate(208,18)"/>
</svg>
